<?xml version="1.0" encoding="UTF-8" standalone="no"?>
<svg width="512px" height="100px" viewBox="0 0 512 100" version="1.1" xmlns="http://www.w3.org/2000/svg" xmlns:xlink="http://www.w3.org/1999/xlink" xmlns:sketch="http://www.bohemiancoding.com/sketch/ns">
    <!-- Generator: Sketch 3.3.3 (12072) - http://www.bohemiancoding.com/sketch -->
    <title>banner-camping</title>
    <desc>Created with Sketch.</desc>
    <defs></defs>
    <g id="Page-1" stroke="none" stroke-width="1" fill="none" fill-rule="evenodd" sketch:type="MSPage">
        <g id="banner-camping" sketch:type="MSArtboardGroup">
            <path d="M379.71835,100.517794 C379.546047,100.721765 491.9901,100.517794 491.9901,100.517794 L451.642878,51.3771768 C443.041007,43.2287389 428.06539,42.5269432 420.687308,51.3771769 L379.71835,100.517794 Z" id="Fill-2146-Copy-3" fill="#6C9543" sketch:type="MSShapeGroup"></path>
            <path d="M431.364203,104.539841 C431.209758,104.694294 532,104.539841 532,104.539841 L495.834403,67.3290274 C488.124038,61.1587752 474.700509,60.6273535 468.087099,67.3290275 L431.364203,104.539841 Z" id="Fill-2146-Copy-2" fill="#76A944" sketch:type="MSShapeGroup"></path>
            <path d="M127.882944,34.5950272 C131.261449,34.5950272 134,32.7659574 134,30.0904473 L134,30.0904473 C134,27.4148064 131.261449,25.2458522 127.882944,25.2458522 L127.882944,25.2458522 C126.731226,25.2458522 125.65467,25.4983452 124.734386,25.9366103 L124.734386,25.9366103 C124.860427,25.5041016 124.929312,25.0544547 124.929312,24.5915944 L124.929312,24.5915944 C124.929312,21.2955795 121.555102,18.6237325 117.393257,18.6237325 L117.393257,18.6237325 C115.77735,18.6237325 114.281372,19.0277213 113.053996,19.7139005 L113.053996,19.7139005 C113.734917,18.6955557 114.122127,17.5351344 114.122127,16.3023668 L114.122127,16.3023668 C114.122127,12.2698049 109.994312,9.00060914 104.902271,9.00060914 L104.902271,9.00060914 C99.8103956,9.00060914 95.6824149,12.269674 95.6824149,16.3023668 L95.6824149,16.3023668 C95.6824149,16.3311483 95.6845624,16.3596683 95.6848928,16.388319 L95.6848928,16.388319 C95.6113824,16.3862258 95.5368808,16.3840018 95.4623793,16.3840018 L95.4623793,16.3840018 C92.1819983,16.3840018 89.5225738,18.4898981 89.5225738,21.0879596 L89.5225738,21.0879596 C89.5225738,22.1972281 90.0085684,23.2163579 90.819991,24.0206724 L90.819991,24.0206724 C90.3579493,23.9424388 89.8792231,23.9005747 89.3879424,23.9005747 L89.3879424,23.9005747 C85.6179326,23.9005747 82.5617171,26.3208445 82.5617171,29.3068032 L82.5617171,29.3068032 C82.5617171,32.2926312 85.6179326,34.7129009 89.3879424,34.7129009 L89.3879424,34.7129009 L127.882944,34.5950272" id="cloud-3" fill="#FFFFFF" sketch:type="MSShapeGroup"></path>
            <path d="M429.331632,30.821282 C433.014631,30.821282 436,28.9923753 436,26.3171037 L436,26.3171037 C436,23.6417014 433.014631,21.4729406 429.331632,21.4729406 L429.331632,21.4729406 C428.076113,21.4729406 426.902531,21.7254111 425.899304,22.1636371 L425.899304,22.1636371 C426.036706,21.7311669 426.111799,21.2815601 426.111799,20.8187412 L426.111799,20.8187412 C426.111799,17.5230201 422.433482,14.8514114 417.896543,14.8514114 L417.896543,14.8514114 C416.134999,14.8514114 414.504193,15.2553642 413.166197,15.9414822 L413.166197,15.9414822 C413.908488,14.9232281 414.330596,13.7629103 414.330596,12.5302526 L414.330596,12.5302526 C414.330596,8.49805028 409.830753,5.22914606 404.279782,5.22914606 L404.279782,5.22914606 C398.728992,5.22914606 394.228969,8.49791947 394.228969,12.5302526 L394.228969,12.5302526 C394.228969,12.5590316 394.23131,12.587549 394.23167,12.6161972 L394.23167,12.6161972 C394.151534,12.6141042 394.070318,12.6118804 393.989102,12.6118804 L393.989102,12.6118804 C390.413071,12.6118804 387.51396,14.7175889 387.51396,17.3154187 L387.51396,17.3154187 C387.51396,18.4245883 388.043756,19.4436273 388.92831,20.24787 L388.92831,20.24787 C388.424626,20.1696434 387.902753,20.127783 387.367195,20.127783 L387.367195,20.127783 C383.257406,20.127783 379.925743,22.547837 379.925743,25.5335295 L379.925743,25.5335295 C379.925743,28.5190912 383.257406,30.9391451 387.367195,30.9391451 L387.367195,30.9391451 L429.331632,30.821282" id="cloud-3-copy" fill="#FFFFFF" sketch:type="MSShapeGroup"></path>
            <path d="M75.4766,62.9996311 C78.45,62.9996311 80.8602,60.9456104 80.8602,58.106004 L80.8602,58.106004 C80.8602,55.2663977 78.4498,52.9642672 75.4766,52.9642672 L75.4766,52.9642672 C75.2948,52.9642672 75.1154,52.9734352 74.9384,52.9906253 L74.9384,52.9906253 C74.9752,52.6246681 74.9954,52.2545088 74.9954,51.8797656 L74.9954,51.8797656 C74.9954,45.5473308 69.6202,40.413616 62.989,40.413616 L62.989,40.413616 C60.4378,40.413616 58.074,41.1757085 56.129,42.4718387 L56.129,42.4718387 C53.969,36.4392749 47.986,32.1001227 40.9374,32.1001227 L40.9374,32.1001227 C32.3928,32.1001227 25.4102,38.4747686 24.9124,46.515322 L24.9124,46.515322 C23.978,46.197879 22.9726,46.0233044 21.924,46.0233044 L21.924,46.0233044 C17.0032,46.0233044 13.0144,49.8328119 13.0144,54.5320003 L13.0144,54.5320003 C13.0144,59.2311887 17.0032,63.0401232 21.924,63.0401232 L21.924,63.0401232 L75.4766,62.9996311" id="cloud-2" fill="#FFFFFF" sketch:type="MSShapeGroup"></path>
            <path d="M249.09575,53.8634172 C252.8125,53.8634172 255.82525,51.1584233 255.82525,47.4188712 L255.82525,47.4188712 C255.82525,43.679319 252.81225,40.6475828 249.09575,40.6475828 L249.09575,40.6475828 C248.8685,40.6475828 248.64425,40.6596564 248.423,40.6822945 L248.423,40.6822945 C248.469,40.2003558 248.49425,39.7128834 248.49425,39.2193742 L248.49425,39.2193742 C248.49425,30.8800245 241.77525,24.1193006 233.48625,24.1193006 L233.48625,24.1193006 C230.29725,24.1193006 227.3425,25.1229202 224.91125,26.8298282 L224.91125,26.8298282 C222.21125,18.8853865 214.7325,13.1710429 205.92175,13.1710429 L205.92175,13.1710429 C195.241,13.1710429 186.51275,21.5659816 185.8905,32.1547975 L185.8905,32.1547975 C184.7225,31.7367485 183.46575,31.5068466 182.155,31.5068466 L182.155,31.5068466 C176.004,31.5068466 171.018,36.5236871 171.018,42.7121718 L171.018,42.7121718 C171.018,48.9006564 176.004,53.9167423 182.155,53.9167423 L182.155,53.9167423 L249.09575,53.8634172" id="cloud-1" fill="#FFFFFF" sketch:type="MSShapeGroup"></path>
            <g id="Tent" sketch:type="MSLayerGroup" transform="translate(369.000000, 69.116736)">
                <path d="M15.8632591,8.11540998 C15.580279,8.11540998 15.3515411,7.88868571 15.3515411,7.60819685 L15.3515411,0.507213124 C15.3515411,0.226724266 15.580279,0 15.8632591,0 C16.1462392,0 16.3749771,0.226724266 16.3749771,0.507213124 L16.3749771,7.60819685 C16.3749771,7.88868571 16.1462392,8.11540998 15.8632591,8.11540998" id="Fill-2228" fill="#485762" sketch:type="MSShapeGroup"></path>
                <path d="M22.5196873,3.55049186 L16.3790709,3.55049186 L16.3790709,0.507213124 L22.5196873,0.507213124 L20.4728152,2.02885249 L22.5196873,3.55049186" id="Fill-2229" fill="#F3D55B" sketch:type="MSShapeGroup"></path>
                <path d="M26.6093378,29.9255743 L15.8632591,7.60819685 L5.11718035,29.9255743 L26.6093378,29.9255743" id="Fill-2230" fill="#9AA880" sketch:type="MSShapeGroup"></path>
                <path d="M12.3416156,29.9118795 L15.9047083,17.7930364 C15.9118723,17.7768056 15.9348996,17.7768056 15.9420637,17.7930364 L19.5056681,29.9255743 L12.3416156,29.9118795" id="Fill-2231" fill="#4A503B" sketch:type="MSShapeGroup"></path>
                <path d="M15.8632591,8.6226231 C15.7322593,8.6226231 15.6012595,8.57291621 15.5014744,8.47400965 C15.3013927,8.27568932 15.3013927,7.95513063 15.5014744,7.7568103 L18.0600646,5.22074468 C18.2601464,5.02242435 18.5835522,5.02242435 18.7836339,5.22074468 C18.9837157,5.41906501 18.9837157,5.74013092 18.7836339,5.93794404 L16.2250437,8.47400965 C16.1252587,8.57291621 15.9942589,8.6226231 15.8632591,8.6226231" id="Fill-2232" fill="#687492" sketch:type="MSShapeGroup"></path>
                <path d="M15.8632591,8.6226231 C15.7322593,8.6226231 15.6012595,8.57291621 15.5014744,8.47400965 L12.9428843,5.93794404 C12.7428025,5.74013092 12.7428025,5.41906501 12.9428843,5.22074468 C13.142966,5.02242435 13.4663718,5.02242435 13.6664536,5.22074468 L16.2250437,7.7568103 C16.4251255,7.95513063 16.4251255,8.27568932 16.2250437,8.47400965 C16.1252587,8.57291621 15.9942589,8.6226231 15.8632591,8.6226231" id="Fill-2233" fill="#687492" sketch:type="MSShapeGroup"></path>
                <path d="M3.07030821,30.4327874 C3.01964813,30.4327874 2.96847632,30.4251792 2.91781624,30.4094556 C2.64814083,30.3262727 2.49769573,30.0417261 2.58212921,29.7744248 C2.83287104,28.9786074 8.80513223,10.2487484 15.6503844,7.14714012 C15.9077786,7.02946668 16.2112274,7.14257521 16.3284108,7.39719619 C16.4461059,7.65232439 16.3330163,7.95310178 16.0761338,8.06925358 C9.64383809,10.9842074 3.61886995,29.8865189 3.55848722,30.0767238 C3.489917,30.2943182 3.2883001,30.4327874 3.07030821,30.4327874" id="Fill-2234" fill="#687492" sketch:type="MSShapeGroup"></path>
                <path d="M28.65621,30.4327874 C28.4382181,30.4327874 28.2366012,30.2943182 28.168031,30.0767238 C28.1076482,29.8865189 22.0826801,10.9842074 15.6503844,8.06925358 C15.3935019,7.95310178 15.2804123,7.65232439 15.3981074,7.39719619 C15.5152908,7.14257521 15.8182279,7.02997389 16.0761338,7.14714012 C22.921386,10.2487484 28.8936471,28.9786074 29.144389,29.7744248 C29.2288225,30.0417261 29.0783774,30.3262727 28.808702,30.4094556 C28.7580419,30.4251792 28.7068701,30.4327874 28.65621,30.4327874" id="Fill-2235" fill="#687492" sketch:type="MSShapeGroup"></path>
                <path d="M3.07081993,30.4327874 C2.92037483,30.4327874 2.7719766,30.3678641 2.67065643,30.2425825 L0.623784285,27.7065169 C0.447241563,27.4874008 0.483061825,27.1683637 0.703612299,26.9933752 C0.925186208,26.8178795 1.24705685,26.8543988 1.42308786,27.0725005 L3.46996,29.6085661 C3.64650272,29.8276822 3.61068246,30.1467192 3.39013198,30.3217077 C3.29546415,30.3967753 3.18288618,30.4327874 3.07081993,30.4327874" id="Fill-2236" fill="#687492" sketch:type="MSShapeGroup"></path>
                <path d="M28.6556983,30.4327874 C28.543632,30.4327874 28.431054,30.3967753 28.3363862,30.3217077 C28.1158357,30.1467192 28.0800155,29.8276822 28.2565582,29.6085661 L30.3034303,27.0725005 C30.4804848,26.854906 30.801332,26.8183867 31.0229059,26.9933752 C31.2434564,27.1683637 31.2792766,27.4874008 31.1027339,27.7065169 L29.0558618,30.2425825 C28.9545416,30.3673569 28.8061434,30.4327874 28.6556983,30.4327874" id="Fill-2237" fill="#687492" sketch:type="MSShapeGroup"></path>
                <path d="M19.5056681,29.9255743 L20.9855566,24.4243407 C21.3304546,23.1415988 20.8862833,21.7771955 19.8500543,20.9367433 L15.9236418,17.7524593 L19.5056681,29.9255743" id="Fill-2238" fill="#6C7556" sketch:type="MSShapeGroup"></path>
                <path d="M7.67577053,28.911148 C7.39330218,28.911148 7.1640525,29.1383795 7.1640525,29.4183612 C7.1640525,29.6983428 7.39330218,29.9255743 7.67577053,29.9255743 C7.95823889,29.9255743 8.18748857,29.6983428 8.18748857,29.4183612 C8.18748857,29.1383795 7.95823889,28.911148 7.67577053,28.911148" id="Fill-2239" fill="#CFD8BD" sketch:type="MSShapeGroup"></path>
                <path d="M9.72264267,28.911148 C9.44017432,28.911148 9.21092464,29.1383795 9.21092464,29.4183612 C9.21092464,29.6983428 9.44017432,29.9255743 9.72264267,29.9255743 C10.005111,29.9255743 10.2343607,29.6983428 10.2343607,29.4183612 C10.2343607,29.1383795 10.005111,28.911148 9.72264267,28.911148" id="Fill-2240" fill="#CFD8BD" sketch:type="MSShapeGroup"></path>
                <path d="M8.6992066,27.8967218 C8.41673825,27.8967218 8.18748857,28.1239533 8.18748857,28.4039349 C8.18748857,28.6839166 8.41673825,28.911148 8.6992066,28.911148 C8.98167496,28.911148 9.21092464,28.6839166 9.21092464,28.4039349 C9.21092464,28.1239533 8.98167496,27.8967218 8.6992066,27.8967218" id="Fill-2241" fill="#CFD8BD" sketch:type="MSShapeGroup"></path>
                <path d="M8.6992066,26.8822955 C8.98167496,26.8822955 9.21092464,26.6550641 9.21092464,26.3750824 C9.21092464,26.0951008 8.98167496,25.8678693 8.6992066,25.8678693 C8.41673825,25.8678693 8.18748857,26.0951008 8.18748857,26.3750824 C8.18748857,26.6550641 8.41673825,26.8822955 8.6992066,26.8822955" id="Fill-2242" fill="#CFD8BD" sketch:type="MSShapeGroup"></path>
                <path d="M10.7460787,25.8678693 C10.4636104,25.8678693 10.2343607,26.0951008 10.2343607,26.3750824 C10.2343607,26.6550641 10.4636104,26.8822955 10.7460787,26.8822955 C11.0285471,26.8822955 11.2577968,26.6550641 11.2577968,26.3750824 C11.2577968,26.0951008 11.0285471,25.8678693 10.7460787,25.8678693" id="Fill-2243" fill="#CFD8BD" sketch:type="MSShapeGroup"></path>
                <path d="M9.72264267,25.8678693 C10.005111,25.8678693 10.2343607,25.6406378 10.2343607,25.3606562 C10.2343607,25.0806745 10.005111,24.8534431 9.72264267,24.8534431 C9.44017432,24.8534431 9.21092464,25.0806745 9.21092464,25.3606562 C9.21092464,25.6406378 9.44017432,25.8678693 9.72264267,25.8678693" id="Fill-2244" fill="#CFD8BD" sketch:type="MSShapeGroup"></path>
                <path d="M8.6992066,24.8534431 C8.98167496,24.8534431 9.21092464,24.6262116 9.21092464,24.3462299 C9.21092464,24.0662483 8.98167496,23.8390168 8.6992066,23.8390168 C8.41673825,23.8390168 8.18748857,24.0662483 8.18748857,24.3462299 C8.18748857,24.6262116 8.41673825,24.8534431 8.6992066,24.8534431" id="Fill-2245" fill="#CFD8BD" sketch:type="MSShapeGroup"></path>
                <path d="M6.65233446,27.8967218 C6.3698661,27.8967218 6.14061642,28.1239533 6.14061642,28.4039349 C6.14061642,28.6839166 6.3698661,28.911148 6.65233446,28.911148 C6.93480282,28.911148 7.1640525,28.6839166 7.1640525,28.4039349 C7.1640525,28.1239533 6.93480282,27.8967218 6.65233446,27.8967218" id="Fill-2246" fill="#CFD8BD" sketch:type="MSShapeGroup"></path>
                <path d="M10.7460787,27.8967218 C10.4636104,27.8967218 10.2343607,28.1239533 10.2343607,28.4039349 C10.2343607,28.6839166 10.4636104,28.911148 10.7460787,28.911148 C11.0285471,28.911148 11.2577968,28.6839166 11.2577968,28.4039349 C11.2577968,28.1239533 11.0285471,27.8967218 10.7460787,27.8967218" id="Fill-2247" fill="#CFD8BD" sketch:type="MSShapeGroup"></path>
                <path d="M9.72264267,26.8822955 C9.44017432,26.8822955 9.21092464,27.109527 9.21092464,27.3895087 C9.21092464,27.6694903 9.44017432,27.8967218 9.72264267,27.8967218 C10.005111,27.8967218 10.2343607,27.6694903 10.2343607,27.3895087 C10.2343607,27.109527 10.005111,26.8822955 9.72264267,26.8822955" id="Fill-2248" fill="#CFD8BD" sketch:type="MSShapeGroup"></path>
                <path d="M7.67577053,27.8967218 C7.95823889,27.8967218 8.18748857,27.6694903 8.18748857,27.3895087 C8.18748857,27.109527 7.95823889,26.8822955 7.67577053,26.8822955 C7.39330218,26.8822955 7.1640525,27.109527 7.1640525,27.3895087 C7.1640525,27.6694903 7.39330218,27.8967218 7.67577053,27.8967218" id="Fill-2249" fill="#CFD8BD" sketch:type="MSShapeGroup"></path>
                <path d="M24.0507477,28.911148 C23.7682793,28.911148 23.5390296,29.1383795 23.5390296,29.4183612 C23.5390296,29.6983428 23.7682793,29.9255743 24.0507477,29.9255743 C24.333216,29.9255743 24.5624657,29.6983428 24.5624657,29.4183612 C24.5624657,29.1383795 24.333216,28.911148 24.0507477,28.911148" id="Fill-2250" fill="#CFD8BD" sketch:type="MSShapeGroup"></path>
                <path d="M22.0038755,28.911148 C21.7214072,28.911148 21.4921575,29.1383795 21.4921575,29.4183612 C21.4921575,29.6983428 21.7214072,29.9255743 22.0038755,29.9255743 C22.2863439,29.9255743 22.5155936,29.6983428 22.5155936,29.4183612 C22.5155936,29.1383795 22.2863439,28.911148 22.0038755,28.911148" id="Fill-2251" fill="#CFD8BD" sketch:type="MSShapeGroup"></path>
                <path d="M23.0273116,27.8967218 C22.7448432,27.8967218 22.5155936,28.1239533 22.5155936,28.4039349 C22.5155936,28.6839166 22.7448432,28.911148 23.0273116,28.911148 C23.3097799,28.911148 23.5390296,28.6839166 23.5390296,28.4039349 C23.5390296,28.1239533 23.3097799,27.8967218 23.0273116,27.8967218" id="Fill-2252" fill="#CFD8BD" sketch:type="MSShapeGroup"></path>
                <path d="M23.0273116,25.8678693 C22.7448432,25.8678693 22.5155936,26.0951008 22.5155936,26.3750824 C22.5155936,26.6550641 22.7448432,26.8822955 23.0273116,26.8822955 C23.3097799,26.8822955 23.5390296,26.6550641 23.5390296,26.3750824 C23.5390296,26.0951008 23.3097799,25.8678693 23.0273116,25.8678693" id="Fill-2253" fill="#CFD8BD" sketch:type="MSShapeGroup"></path>
                <path d="M20.9804395,26.8822955 C21.2629078,26.8822955 21.4921575,26.6550641 21.4921575,26.3750824 C21.4921575,26.0951008 21.2629078,25.8678693 20.9804395,25.8678693 C20.6979711,25.8678693 20.4687214,26.0951008 20.4687214,26.3750824 C20.4687214,26.6550641 20.6979711,26.8822955 20.9804395,26.8822955" id="Fill-2254" fill="#CFD8BD" sketch:type="MSShapeGroup"></path>
                <path d="M22.0038755,25.8678693 C22.2863439,25.8678693 22.5155936,25.6406378 22.5155936,25.3606562 C22.5155936,25.0806745 22.2863439,24.8534431 22.0038755,24.8534431 C21.7214072,24.8534431 21.4921575,25.0806745 21.4921575,25.3606562 C21.4921575,25.6406378 21.7214072,25.8678693 22.0038755,25.8678693" id="Fill-2255" fill="#CFD8BD" sketch:type="MSShapeGroup"></path>
                <path d="M23.0273116,24.8534431 C23.3097799,24.8534431 23.5390296,24.6262116 23.5390296,24.3462299 C23.5390296,24.0662483 23.3097799,23.8390168 23.0273116,23.8390168 C22.7448432,23.8390168 22.5155936,24.0662483 22.5155936,24.3462299 C22.5155936,24.6262116 22.7448432,24.8534431 23.0273116,24.8534431" id="Fill-2256" fill="#CFD8BD" sketch:type="MSShapeGroup"></path>
                <path d="M25.0741837,27.8967218 C24.7917154,27.8967218 24.5624657,28.1239533 24.5624657,28.4039349 C24.5624657,28.6839166 24.7917154,28.911148 25.0741837,28.911148 C25.3566521,28.911148 25.5859018,28.6839166 25.5859018,28.4039349 C25.5859018,28.1239533 25.3566521,27.8967218 25.0741837,27.8967218" id="Fill-2257" fill="#CFD8BD" sketch:type="MSShapeGroup"></path>
                <path d="M20.9804395,27.8967218 C20.6979711,27.8967218 20.4687214,28.1239533 20.4687214,28.4039349 C20.4687214,28.6839166 20.6979711,28.911148 20.9804395,28.911148 C21.2629078,28.911148 21.4921575,28.6839166 21.4921575,28.4039349 C21.4921575,28.1239533 21.2629078,27.8967218 20.9804395,27.8967218" id="Fill-2258" fill="#CFD8BD" sketch:type="MSShapeGroup"></path>
                <path d="M22.0038755,26.8822955 C21.7214072,26.8822955 21.4921575,27.109527 21.4921575,27.3895087 C21.4921575,27.6694903 21.7214072,27.8967218 22.0038755,27.8967218 C22.2863439,27.8967218 22.5155936,27.6694903 22.5155936,27.3895087 C22.5155936,27.109527 22.2863439,26.8822955 22.0038755,26.8822955" id="Fill-2259" fill="#CFD8BD" sketch:type="MSShapeGroup"></path>
                <path d="M24.0507477,27.8967218 C24.333216,27.8967218 24.5624657,27.6694903 24.5624657,27.3895087 C24.5624657,27.109527 24.333216,26.8822955 24.0507477,26.8822955 C23.7682793,26.8822955 23.5390296,27.109527 23.5390296,27.3895087 C23.5390296,27.6694903 23.7682793,27.8967218 24.0507477,27.8967218" id="Fill-2260" fill="#CFD8BD" sketch:type="MSShapeGroup"></path>
                <path d="M15.9236418,17.7524593 L12.3416156,29.9255743 L10.8612153,24.4243407 C10.5163173,23.1415988 10.9604886,21.7771955 11.9972293,20.9367433 L15.9236418,17.7524593" id="Fill-2280" fill="#6C7556" sketch:type="MSShapeGroup"></path>
            </g>
            <g id="Forest" sketch:type="MSLayerGroup" transform="translate(295.000000, 19.000000)">
                <path d="M44.4065942,45.1580134 C44.4065942,57.2004853 34.5960458,66.9619319 22.492998,66.9619319 C10.3899503,66.9619319 0.579401885,57.2004853 0.579401885,45.1580134 C0.579401885,33.1172187 10.3899503,23.3557722 22.492998,23.3557722 C34.5960458,23.3557722 44.4065942,33.1172187 44.4065942,45.1580134" id="Fill-2186" fill="#98C969" sketch:type="MSShapeGroup"></path>
                <path d="M52.2432333,0.730013663 L41.0807846,33.6505761 C43.1760615,36.9932846 44.4065942,40.9280532 44.4065942,45.1580134 C44.4065942,52.9386579 40.2969521,59.7498666 34.1341746,63.6091601 L73.566848,63.6091601 L52.2432333,0.730013663" id="Fill-2187" fill="#76A944" sketch:type="MSShapeGroup"></path>
                <path d="M22.492998,60.2530339 C22.0614688,60.2530339 21.6299395,60.0903431 21.3012355,59.7616071 L16.2442518,54.7299336 C15.5851583,54.0758161 15.5851583,53.014133 16.2442518,52.3583382 C16.9033454,51.7042206 17.9686833,51.7042206 18.6277768,52.3583382 L23.6847605,57.3900117 C24.3438541,58.0458065 24.3438541,59.1074896 23.6847605,59.7616071 C23.3560566,60.0903431 22.9245273,60.2530339 22.492998,60.2530339" id="Fill-2274" fill="#805333" sketch:type="MSShapeGroup"></path>
                <path d="M22.492998,60.2530339 C22.0614688,60.2530339 21.6299395,60.0903431 21.3012355,59.7616071 C20.642142,59.1074896 20.642142,58.0458065 21.3012355,57.3900117 L26.3582193,52.3583382 C27.0173128,51.7042206 28.0826507,51.7042206 28.7417443,52.3583382 C29.4008378,53.014133 29.4008378,54.0758161 28.7417443,54.7299336 L23.6847605,59.7616071 C23.3560566,60.0903431 22.9245273,60.2530339 22.492998,60.2530339" id="Fill-2275" fill="#805333" sketch:type="MSShapeGroup"></path>
                <path d="M22.492998,83.7358541 C21.5608274,83.7358541 20.8073368,82.9844576 20.8073368,82.0569524 L20.8073368,58.5774866 C20.8073368,57.6499815 21.5608274,56.8985849 22.492998,56.8985849 C23.4251687,56.8985849 24.1786593,57.6499815 24.1786593,58.5774866 L24.1786593,82.0569524 C24.1786593,82.9844576 23.4251687,83.7358541 22.492998,83.7358541" id="Fill-2276" fill="#805333" sketch:type="MSShapeGroup"></path>
                <path d="M52.8349004,60.2530339 C52.4033711,60.2530339 51.9718418,60.0903431 51.6431379,59.7616071 L46.5861542,54.7299336 C45.9270606,54.0758161 45.9270606,53.014133 46.5861542,52.3583382 C47.2452477,51.7042206 48.3105856,51.7042206 48.9696792,52.3583382 L54.0266629,57.3900117 C54.6857564,58.0458065 54.6857564,59.1074896 54.0266629,59.7616071 C53.697959,60.0903431 53.2664297,60.2530339 52.8349004,60.2530339" id="Fill-2277" fill="#805333" sketch:type="MSShapeGroup"></path>
                <path d="M52.8349004,60.2530339 C52.4033711,60.2530339 51.9718418,60.0903431 51.6431379,59.7616071 C50.9840444,59.1074896 50.9840444,58.0458065 51.6431379,57.3900117 L56.7001216,52.3583382 C57.3592152,51.7042206 58.4245531,51.7042206 59.0836466,52.3583382 C59.7427402,53.014133 59.7427402,54.0758161 59.0836466,54.7299336 L54.0266629,59.7616071 C53.697959,60.0903431 53.2664297,60.2530339 52.8349004,60.2530339" id="Fill-2278" fill="#805333" sketch:type="MSShapeGroup"></path>
                <path d="M52.8349004,83.7358541 C51.9027297,83.7358541 51.1492392,82.9844576 51.1492392,82.0569524 L51.1492392,58.5774866 C51.1492392,57.6499815 51.9027297,56.8985849 52.8349004,56.8985849 C53.7670711,56.8985849 54.5205616,57.6499815 54.5205616,58.5774866 L54.5205616,82.0569524 C54.5205616,82.9844576 53.7670711,83.7358541 52.8349004,83.7358541" id="Fill-2279" fill="#805333" sketch:type="MSShapeGroup"></path>
            </g>
            <g id="Campfire" sketch:type="MSLayerGroup" transform="translate(402.834657, 86.192078)">
                <path d="M12.2512028,10.2857949 L8.72065086,9.03239883 C8.72791827,8.96896221 8.72838713,8.90482849 8.72440178,8.84023002 C8.08487019,9.41580698 7.29952165,9.7594801 6.44689101,9.7594801 C5.61887577,9.7594801 4.85345399,9.43625541 4.22423742,8.890654 C4.22353413,8.93828956 4.22494072,8.98546038 4.23033267,9.03239883 L0.699546283,10.2857949 C0.15331879,10.4795903 -0.133626468,11.0811925 0.0621245861,11.6226113 C0.257641208,12.1640301 0.864586693,12.4484492 1.41104862,12.2546538 L6.47549176,10.4568182 L11.5399349,12.2546538 C12.0861624,12.4484492 12.6931079,12.1640301 12.8888589,11.6226113 C13.0843756,11.0811925 12.7976647,10.4795903 12.2512028,10.2857949" id="Fill-1523" fill="#805333" sketch:type="MSShapeGroup"></path>
                <path d="M1.41104862,12.2539567 C0.862476801,12.4486816 0.258578938,12.1658891 0.0621245861,11.6221466 C-0.134329765,11.0784041 0.150974466,10.4798227 0.699546283,10.2850978 C1.2481181,10.0903729 1.85201596,10.3733979 2.04847032,10.916908 C2.24492467,11.4606504 1.959386,12.0592319 1.41104862,12.2539567" id="Fill-1525" fill="#5C3A25" sketch:type="MSShapeGroup"></path>
                <path d="M11.5399349,12.2539567 C12.0885067,12.4486816 12.6924046,12.1658891 12.8888589,11.6221466 C13.0853133,11.0784041 12.7997746,10.4798227 12.2512028,10.2850978 C11.7028654,10.0903729 11.0989676,10.3733979 10.9025132,10.916908 C10.7060589,11.4606504 10.9913631,12.0592319 11.5399349,12.2539567" id="Fill-1526" fill="#5C3A25" sketch:type="MSShapeGroup"></path>
                <path d="M3.97339476,10.6152936 C3.93236908,10.4937648 3.79991478,10.4277721 3.67683777,10.4684366 L2.06910037,10.9996312 C2.11340809,11.1627539 2.11786231,11.3277356 2.08433847,11.4845844 L3.82499905,10.9094722 C3.94784162,10.8688077 4.01442043,10.7370547 3.97339476,10.6152936" id="Fill-1590" fill="#9B7157" sketch:type="MSShapeGroup"></path>
                <path d="M3.03566515,10.1505564 C2.99463948,10.0290276 2.86241961,9.9628026 2.73910817,10.0036995 L1.60047,10.3799042 C1.74933457,10.4693661 1.87710023,10.5927538 1.96759114,10.7486731 L2.88726944,10.444735 C3.01011202,10.4040705 3.07669082,10.2723175 3.03566515,10.1505564" id="Fill-1591" fill="#9B7157" sketch:type="MSShapeGroup"></path>
                <path d="M11.3298835,10.3919874 L10.1546739,10.0036995 C10.0318313,9.9628026 9.89914254,10.0290276 9.85811687,10.1505564 C9.81732563,10.2723175 9.88367,10.4040705 10.0065126,10.444735 L10.9754217,10.7649389 C11.0623961,10.609252 11.1850043,10.4835406 11.3298835,10.3919874" id="Fill-1592" fill="#9B7157" sketch:type="MSShapeGroup"></path>
                <path d="M10.8774289,11.0170588 L9.21694426,10.4684366 C9.09363281,10.4277721 8.96141294,10.4937648 8.92038727,10.6152936 C8.87959603,10.7370547 8.9459404,10.8688077 9.06878298,10.9094722 L10.8696927,11.5043357 C10.8328868,11.3474869 10.8359344,11.1813434 10.8774289,11.0170588" id="Fill-1593" fill="#9B7157" sketch:type="MSShapeGroup"></path>
                <path d="M8.72065086,9.03239883 C8.72791827,8.96896221 8.72838713,8.90482849 8.72440178,8.84023002 C8.08487019,9.41580698 7.29952165,9.7594801 6.44689101,9.7594801 C5.61887577,9.7594801 4.85345399,9.43625541 4.22423742,8.890654 C4.22353413,8.93828956 4.22494072,8.98546038 4.23033267,9.03239883 L3.23141621,9.38699328 C3.72536528,10.0936261 4.39584194,10.6334183 5.16876556,10.9206259 L6.47549176,10.4568182 L7.75150732,10.9097045 C8.519039,10.6178496 9.18388929,10.0771279 9.67338414,9.37049511 L8.72065086,9.03239883" id="Fill-1605" fill="#CB9851" sketch:type="MSShapeGroup"></path>
                <path id="Stroke-1606" stroke="#0096E6" stroke-width="2" stroke-linecap="round" stroke-linejoin="round" sketch:type="MSShapeGroup"></path>
                <path d="M9.61172842,1.62658002 C9.61172842,3.83408147 7.73626921,5.3444772 7.73626921,5.3444772 C7.73626921,3.60171289 7.03297201,2.09131716 7.03297201,2.09131716 C7.03297201,3.45648254 6.09524241,4.18263433 6.09524241,4.18263433 C4.84243566,2.94085667 6.09524241,0 6.09524241,0 C4.31121184,0.23306568 2.71355504,1.45230359 2.71355504,3.48552861 C2.71355504,4.92319297 3.11888866,5.87962202 3.75091841,6.50632007 C3.75091841,6.50632007 3.18992167,6.18379249 2.63033153,5.97094287 C2.92079328,8.2481549 4.51634019,9.99184867 6.44689101,9.99184867 C8.58327348,9.99184867 10.3150256,8.03112265 10.3150256,5.3444772 C10.3150256,2.65759938 9.61172842,1.62658002 9.61172842,1.62658002" id="Fill-1607" fill="#F0C419" sketch:type="MSShapeGroup"></path>
                <path d="M7.71563916,6.84139555 C7.71563916,7.611465 6.88692063,8.30043783 6.88692063,8.30043783 C6.88692063,7.69256164 6.5762977,7.08445308 6.5762977,7.08445308 C6.5762977,7.56080866 5.85119828,7.5708005 5.85119828,7.5708005 C5.52744714,7.22643028 5.85119828,6.27395149 5.85119828,6.27395149 C5.06280212,6.35528049 4.66778353,6.78051498 4.66778353,7.48970387 C4.66778353,7.99138762 4.84665545,8.32506889 5.12609887,8.54349535 C5.12609887,8.54349535 4.87806939,8.43102896 4.63097764,8.35690339 C4.75921216,9.15113917 5.46415039,9.7594801 6.31724989,9.7594801 C7.26130917,9.7594801 8.02649653,9.07561939 8.02649653,8.13824456 C8.02649653,7.2011021 7.71563916,6.84139555 7.71563916,6.84139555" id="Fill-1608" fill="#E57E25" sketch:type="MSShapeGroup"></path>
            </g>
        </g>
    </g>
</svg>