<?xml version="1.0" encoding="UTF-8" standalone="no"?>
<svg width="61px" height="60px" viewBox="0 0 61 60" version="1.1" xmlns="http://www.w3.org/2000/svg" xmlns:xlink="http://www.w3.org/1999/xlink" xmlns:sketch="http://www.bohemiancoding.com/sketch/ns">
    <!-- Generator: Sketch 3.3.3 (12072) - http://www.bohemiancoding.com/sketch -->
    <title>Tent</title>
    <desc>Created with Sketch.</desc>
    <defs></defs>
    <g id="Page-1" stroke="none" stroke-width="1" fill="none" fill-rule="evenodd" sketch:type="MSPage">
        <g id="Icons" sketch:type="MSArtboardGroup" transform="translate(-1079.000000, -1300.000000)">
            <g id="Tent" sketch:type="MSLayerGroup" transform="translate(1078.500000, 1300.000000)">
                <path d="M31,16 C30.447,16 30,15.553 30,15 L30,1 C30,0.447 30.447,0 31,0 C31.553,0 32,0.447 32,1 L32,15 C32,15.553 31.553,16 31,16" id="Fill-2228" fill="#485762" sketch:type="MSShapeGroup"></path>
                <path d="M44.008,7 L32.008,7 L32.008,1 L44.008,1 L40.008,4 L44.008,7" id="Fill-2229" fill="#F3D55B" sketch:type="MSShapeGroup"></path>
                <path d="M52,59 L31,15 L10,59 L52,59" id="Fill-2230" fill="#9AA880" sketch:type="MSShapeGroup"></path>
                <path d="M24.118,58.973 L31.081,35.08 C31.095,35.048 31.14,35.048 31.154,35.08 L38.118,59 L24.118,58.973" id="Fill-2231" fill="#4A503B" sketch:type="MSShapeGroup"></path>
                <path d="M31,17 C30.744,17 30.488,16.902 30.293,16.707 C29.902,16.316 29.902,15.684 30.293,15.293 L35.293,10.293 C35.684,9.902 36.316,9.902 36.707,10.293 C37.098,10.684 37.098,11.317 36.707,11.707 L31.707,16.707 C31.512,16.902 31.256,17 31,17" id="Fill-2232" fill="#687492" sketch:type="MSShapeGroup"></path>
                <path d="M31,17 C30.744,17 30.488,16.902 30.293,16.707 L25.293,11.707 C24.902,11.317 24.902,10.684 25.293,10.293 C25.684,9.902 26.316,9.902 26.707,10.293 L31.707,15.293 C32.098,15.684 32.098,16.316 31.707,16.707 C31.512,16.902 31.256,17 31,17" id="Fill-2233" fill="#687492" sketch:type="MSShapeGroup"></path>
                <path d="M6,60 C5.901,60 5.801,59.985 5.702,59.954 C5.175,59.79 4.881,59.229 5.046,58.702 C5.536,57.133 17.207,20.206 30.584,14.091 C31.087,13.859 31.68,14.082 31.909,14.584 C32.139,15.087 31.918,15.68 31.416,15.909 C18.846,21.656 7.072,58.923 6.954,59.298 C6.82,59.727 6.426,60 6,60" id="Fill-2234" fill="#687492" sketch:type="MSShapeGroup"></path>
                <path d="M56,60 C55.574,60 55.18,59.727 55.046,59.298 C54.928,58.923 43.154,21.656 30.584,15.909 C30.082,15.68 29.861,15.087 30.091,14.584 C30.32,14.082 30.912,13.86 31.416,14.091 C44.793,20.206 56.464,57.133 56.954,58.702 C57.119,59.229 56.825,59.79 56.298,59.954 C56.199,59.985 56.099,60 56,60" id="Fill-2235" fill="#687492" sketch:type="MSShapeGroup"></path>
                <path d="M6.001,60 C5.707,60 5.417,59.872 5.219,59.625 L1.219,54.625 C0.874,54.193 0.944,53.564 1.375,53.219 C1.808,52.873 2.437,52.945 2.781,53.375 L6.781,58.375 C7.126,58.807 7.056,59.436 6.625,59.781 C6.44,59.929 6.22,60 6.001,60" id="Fill-2236" fill="#687492" sketch:type="MSShapeGroup"></path>
                <path d="M55.999,60 C55.78,60 55.56,59.929 55.375,59.781 C54.944,59.436 54.874,58.807 55.219,58.375 L59.219,53.375 C59.565,52.946 60.192,52.874 60.625,53.219 C61.056,53.564 61.126,54.193 60.781,54.625 L56.781,59.625 C56.583,59.871 56.293,60 55.999,60" id="Fill-2237" fill="#687492" sketch:type="MSShapeGroup"></path>
                <path d="M38.118,59 L41.01,48.154 C41.684,45.625 40.816,42.935 38.791,41.278 L31.118,35 L38.118,59" id="Fill-2238" fill="#6C7556" sketch:type="MSShapeGroup"></path>
                <path d="M15,57 C14.448,57 14,57.448 14,58 C14,58.552 14.448,59 15,59 C15.552,59 16,58.552 16,58 C16,57.448 15.552,57 15,57" id="Fill-2239" fill="#CFD8BD" sketch:type="MSShapeGroup"></path>
                <path d="M19,57 C18.448,57 18,57.448 18,58 C18,58.552 18.448,59 19,59 C19.552,59 20,58.552 20,58 C20,57.448 19.552,57 19,57" id="Fill-2240" fill="#CFD8BD" sketch:type="MSShapeGroup"></path>
                <path d="M17,55 C16.448,55 16,55.448 16,56 C16,56.552 16.448,57 17,57 C17.552,57 18,56.552 18,56 C18,55.448 17.552,55 17,55" id="Fill-2241" fill="#CFD8BD" sketch:type="MSShapeGroup"></path>
                <path d="M17,53 C17.552,53 18,52.552 18,52 C18,51.448 17.552,51 17,51 C16.448,51 16,51.448 16,52 C16,52.552 16.448,53 17,53" id="Fill-2242" fill="#CFD8BD" sketch:type="MSShapeGroup"></path>
                <path d="M21,51 C20.448,51 20,51.448 20,52 C20,52.552 20.448,53 21,53 C21.552,53 22,52.552 22,52 C22,51.448 21.552,51 21,51" id="Fill-2243" fill="#CFD8BD" sketch:type="MSShapeGroup"></path>
                <path d="M19,51 C19.552,51 20,50.552 20,50 C20,49.448 19.552,49 19,49 C18.448,49 18,49.448 18,50 C18,50.552 18.448,51 19,51" id="Fill-2244" fill="#CFD8BD" sketch:type="MSShapeGroup"></path>
                <path d="M17,49 C17.552,49 18,48.552 18,48 C18,47.448 17.552,47 17,47 C16.448,47 16,47.448 16,48 C16,48.552 16.448,49 17,49" id="Fill-2245" fill="#CFD8BD" sketch:type="MSShapeGroup"></path>
                <path d="M13,55 C12.448,55 12,55.448 12,56 C12,56.552 12.448,57 13,57 C13.552,57 14,56.552 14,56 C14,55.448 13.552,55 13,55" id="Fill-2246" fill="#CFD8BD" sketch:type="MSShapeGroup"></path>
                <path d="M21,55 C20.448,55 20,55.448 20,56 C20,56.552 20.448,57 21,57 C21.552,57 22,56.552 22,56 C22,55.448 21.552,55 21,55" id="Fill-2247" fill="#CFD8BD" sketch:type="MSShapeGroup"></path>
                <path d="M19,53 C18.448,53 18,53.448 18,54 C18,54.552 18.448,55 19,55 C19.552,55 20,54.552 20,54 C20,53.448 19.552,53 19,53" id="Fill-2248" fill="#CFD8BD" sketch:type="MSShapeGroup"></path>
                <path d="M15,55 C15.552,55 16,54.552 16,54 C16,53.448 15.552,53 15,53 C14.448,53 14,53.448 14,54 C14,54.552 14.448,55 15,55" id="Fill-2249" fill="#CFD8BD" sketch:type="MSShapeGroup"></path>
                <path d="M47,57 C46.448,57 46,57.448 46,58 C46,58.552 46.448,59 47,59 C47.552,59 48,58.552 48,58 C48,57.448 47.552,57 47,57" id="Fill-2250" fill="#CFD8BD" sketch:type="MSShapeGroup"></path>
                <path d="M43,57 C42.448,57 42,57.448 42,58 C42,58.552 42.448,59 43,59 C43.552,59 44,58.552 44,58 C44,57.448 43.552,57 43,57" id="Fill-2251" fill="#CFD8BD" sketch:type="MSShapeGroup"></path>
                <path d="M45,55 C44.448,55 44,55.448 44,56 C44,56.552 44.448,57 45,57 C45.552,57 46,56.552 46,56 C46,55.448 45.552,55 45,55" id="Fill-2252" fill="#CFD8BD" sketch:type="MSShapeGroup"></path>
                <path d="M45,51 C44.448,51 44,51.448 44,52 C44,52.552 44.448,53 45,53 C45.552,53 46,52.552 46,52 C46,51.448 45.552,51 45,51" id="Fill-2253" fill="#CFD8BD" sketch:type="MSShapeGroup"></path>
                <path d="M41,53 C41.552,53 42,52.552 42,52 C42,51.448 41.552,51 41,51 C40.448,51 40,51.448 40,52 C40,52.552 40.448,53 41,53" id="Fill-2254" fill="#CFD8BD" sketch:type="MSShapeGroup"></path>
                <path d="M43,51 C43.552,51 44,50.552 44,50 C44,49.448 43.552,49 43,49 C42.448,49 42,49.448 42,50 C42,50.552 42.448,51 43,51" id="Fill-2255" fill="#CFD8BD" sketch:type="MSShapeGroup"></path>
                <path d="M45,49 C45.552,49 46,48.552 46,48 C46,47.448 45.552,47 45,47 C44.448,47 44,47.448 44,48 C44,48.552 44.448,49 45,49" id="Fill-2256" fill="#CFD8BD" sketch:type="MSShapeGroup"></path>
                <path d="M49,55 C48.448,55 48,55.448 48,56 C48,56.552 48.448,57 49,57 C49.552,57 50,56.552 50,56 C50,55.448 49.552,55 49,55" id="Fill-2257" fill="#CFD8BD" sketch:type="MSShapeGroup"></path>
                <path d="M41,55 C40.448,55 40,55.448 40,56 C40,56.552 40.448,57 41,57 C41.552,57 42,56.552 42,56 C42,55.448 41.552,55 41,55" id="Fill-2258" fill="#CFD8BD" sketch:type="MSShapeGroup"></path>
                <path d="M43,53 C42.448,53 42,53.448 42,54 C42,54.552 42.448,55 43,55 C43.552,55 44,54.552 44,54 C44,53.448 43.552,53 43,53" id="Fill-2259" fill="#CFD8BD" sketch:type="MSShapeGroup"></path>
                <path d="M47,55 C47.552,55 48,54.552 48,54 C48,53.448 47.552,53 47,53 C46.448,53 46,53.448 46,54 C46,54.552 46.448,55 47,55" id="Fill-2260" fill="#CFD8BD" sketch:type="MSShapeGroup"></path>
                <path d="M31.118,35 L24.118,59 L21.225,48.154 C20.551,45.625 21.419,42.935 23.445,41.278 L31.118,35" id="Fill-2280" fill="#6C7556" sketch:type="MSShapeGroup"></path>
            </g>
        </g>
    </g>
</svg>