<?xml version="1.0" encoding="UTF-8" standalone="no"?>
<svg width="128px" height="128px" viewBox="0 0 128 128" version="1.1" xmlns="http://www.w3.org/2000/svg" xmlns:xlink="http://www.w3.org/1999/xlink" xmlns:sketch="http://www.bohemiancoding.com/sketch/ns">
    <!-- Generator: Sketch 3.3.3 (12072) - http://www.bohemiancoding.com/sketch -->
    <title>city</title>
    <desc>Created with Sketch.</desc>
    <defs>
        <linearGradient x1="99.9998664%" y1="121.069181%" x2="-34.2106198%" y2="24.5283%" id="linearGradient-1">
            <stop stop-color="#898E79" offset="0%"></stop>
            <stop stop-color="#A8AD9B" offset="100%"></stop>
        </linearGradient>
        <linearGradient x1="100.000049%" y1="121.069182%" x2="-34.210435%" y2="24.5283023%" id="linearGradient-2">
            <stop stop-color="#898E79" offset="0%"></stop>
            <stop stop-color="#A8AD9B" offset="100%"></stop>
        </linearGradient>
        <linearGradient x1="-102.28209%" y1="64.4601639%" x2="-109.74682%" y2="-49.1530321%" id="linearGradient-3">
            <stop stop-color="#898E79" offset="0%"></stop>
            <stop stop-color="#A8AD9B" offset="100%"></stop>
        </linearGradient>
        <linearGradient x1="100.000017%" y1="121.069182%" x2="-34.2104673%" y2="24.5283019%" id="linearGradient-4">
            <stop stop-color="#898E79" offset="0%"></stop>
            <stop stop-color="#A8AD9B" offset="100%"></stop>
        </linearGradient>
        <linearGradient x1="50.0000006%" y1="-65.9941084%" x2="50.0000006%" y2="100%" id="linearGradient-5">
            <stop stop-color="#000000" offset="0%"></stop>
            <stop stop-color="#204A87" offset="100%"></stop>
        </linearGradient>
        <linearGradient x1="34.3859374%" y1="49.9999937%" x2="49.9999974%" y2="112.76575%" id="linearGradient-6">
            <stop stop-color="#8A9DA5" offset="0%"></stop>
            <stop stop-color="#74848A" offset="100%"></stop>
        </linearGradient>
    </defs>
    <g id="Page-1" stroke="none" stroke-width="1" fill="none" fill-rule="evenodd" sketch:type="MSPage">
        <g id="city" sketch:type="MSArtboardGroup">
            <g id="g8235" sketch:type="MSLayerGroup" transform="translate(0.147537, 87.227309)"></g>
            <g id="Group" sketch:type="MSLayerGroup" transform="translate(4.000000, 6.000000)">
                <g id="g7603" transform="translate(25.883419, 0.369331)" sketch:type="MSShapeGroup">
                    <rect id="rect7605" fill="url(#linearGradient-1)" x="7.5237062" y="62.8894243" width="38.202815" height="32.0863281"></rect>
                    <g id="g7607" transform="translate(44.796704, 93.365122) scale(-1, 1) translate(-44.796704, -93.365122) translate(36.952849, 64.172656)">
                        <rect id="rect7609" fill="url(#linearGradient-2)" x="0.208242447" y="10.3937547" width="15.4436908" height="47.9264141"></rect>
                        <path d="M2.44350323,12.0183789 L4.47556065,12.0183789 L4.47556065,16.0799394 L2.44350323,16.0799394 L2.44350323,12.0183789 L2.44350323,12.0183789 Z" id="use7611" fill="#6B6F57"></path>
                        <path d="M2.44350323,17.0953296 L4.47556065,17.0953296 L4.47556065,21.1568901 L2.44350323,21.1568901 L2.44350323,17.0953296 L2.44350323,17.0953296 Z" id="use7613" fill="#6B6F57"></path>
                        <path d="M2.44350323,22.1722802 L4.47556065,22.1722802 L4.47556065,26.2338407 L2.44350323,26.2338407 L2.44350323,22.1722802 L2.44350323,22.1722802 Z" id="use7615" fill="#6B6F57"></path>
                        <path d="M2.44350323,27.2492308 L4.47556065,27.2492308 L4.47556065,31.3107913 L2.44350323,31.3107913 L2.44350323,27.2492308 L2.44350323,27.2492308 Z" id="use7617" fill="#6B6F57"></path>
                        <path d="M2.44350323,32.3261815 L4.47556065,32.3261815 L4.47556065,36.387742 L2.44350323,36.387742 L2.44350323,32.3261815 L2.44350323,32.3261815 Z" id="use7619" fill="#6B6F57"></path>
                        <path d="M2.44350323,37.4031321 L4.47556065,37.4031321 L4.47556065,41.4646926 L2.44350323,41.4646926 L2.44350323,37.4031321 L2.44350323,37.4031321 Z" id="use7621" fill="#6B6F57"></path>
                        <path d="M2.44350323,42.4800828 L4.47556065,42.4800828 L4.47556065,46.5416433 L2.44350323,46.5416433 L2.44350323,42.4800828 L2.44350323,42.4800828 Z" id="use7623" fill="#6B6F57"></path>
                        <g id="g7625" transform="translate(8.483467, 0.000000)" fill="#6B6F57">
                            <path d="M0.140024684,0.0367753997 L2.1720821,0.0367753997 L2.1720821,4.09833591 L0.140024684,4.09833591 L0.140024684,0.0367753997 L0.140024684,0.0367753997 Z" id="use7627"></path>
                            <path d="M0.140024684,5.11372604 L2.1720821,5.11372604 L2.1720821,9.17528655 L0.140024684,9.17528655 L0.140024684,5.11372604 L0.140024684,5.11372604 Z" id="use7629"></path>
                            <path d="M3.23000413,0.0367753997 L5.26206154,0.0367753997 L5.26206154,4.09833591 L3.23000413,4.09833591 L3.23000413,0.0367753997 L3.23000413,0.0367753997 Z" id="use7631"></path>
                            <path d="M3.23000413,5.11372604 L5.26206154,5.11372604 L5.26206154,9.17528655 L3.23000413,9.17528655 L3.23000413,5.11372604 L3.23000413,5.11372604 Z" id="use7633"></path>
                        </g>
                        <path d="M5.53350644,12.0183789 L7.56556386,12.0183789 L7.56556386,16.0799394 L5.53350644,16.0799394 L5.53350644,12.0183789 L5.53350644,12.0183789 Z" id="use7635" fill="#6B6F57"></path>
                        <path d="M5.53350644,17.0953296 L7.56556386,17.0953296 L7.56556386,21.1568901 L5.53350644,21.1568901 L5.53350644,17.0953296 L5.53350644,17.0953296 Z" id="use7637" fill="#6B6F57"></path>
                        <path d="M5.53350644,22.1722802 L7.56556386,22.1722802 L7.56556386,26.2338407 L5.53350644,26.2338407 L5.53350644,22.1722802 L5.53350644,22.1722802 Z" id="use7639" fill="#6B6F57"></path>
                        <path d="M5.53350644,27.2492308 L7.56556386,27.2492308 L7.56556386,31.3107913 L5.53350644,31.3107913 L5.53350644,27.2492308 L5.53350644,27.2492308 Z" id="use7641" fill="#6B6F57"></path>
                        <path d="M5.53350644,32.3261815 L7.56556386,32.3261815 L7.56556386,36.387742 L5.53350644,36.387742 L5.53350644,32.3261815 L5.53350644,32.3261815 Z" id="use7643" fill="#6B6F57"></path>
                        <path d="M5.53350644,37.4031321 L7.56556386,37.4031321 L7.56556386,41.4646926 L5.53350644,41.4646926 L5.53350644,37.4031321 L5.53350644,37.4031321 Z" id="use7645" fill="#6B6F57"></path>
                        <path d="M5.53350644,42.4800828 L7.56556386,42.4800828 L7.56556386,46.5416433 L5.53350644,46.5416433 L5.53350644,42.4800828 L5.53350644,42.4800828 Z" id="use7647" fill="#6B6F57"></path>
                        <path d="M8.62348588,12.0183789 L10.6555433,12.0183789 L10.6555433,16.0799394 L8.62348588,16.0799394 L8.62348588,12.0183789 L8.62348588,12.0183789 Z" id="use7649" fill="#6B6F57"></path>
                        <path d="M8.62348588,17.0953296 L10.6555433,17.0953296 L10.6555433,21.1568901 L8.62348588,21.1568901 L8.62348588,17.0953296 L8.62348588,17.0953296 Z" id="use7651" fill="#6B6F57"></path>
                        <path d="M8.62348588,22.1722802 L10.6555433,22.1722802 L10.6555433,26.2338407 L8.62348588,26.2338407 L8.62348588,22.1722802 L8.62348588,22.1722802 Z" id="use7653" fill="#6B6F57"></path>
                        <path d="M8.62348588,27.2492308 L10.6555433,27.2492308 L10.6555433,31.3107913 L8.62348588,31.3107913 L8.62348588,27.2492308 L8.62348588,27.2492308 Z" id="use7655" fill="#6B6F57"></path>
                        <path d="M8.62348588,32.3261815 L10.6555433,32.3261815 L10.6555433,36.387742 L8.62348588,36.387742 L8.62348588,32.3261815 L8.62348588,32.3261815 Z" id="use7657" fill="#6B6F57"></path>
                        <path d="M8.62348588,37.4031321 L10.6555433,37.4031321 L10.6555433,41.4646926 L8.62348588,41.4646926 L8.62348588,37.4031321 L8.62348588,37.4031321 Z" id="use7659" fill="#6B6F57"></path>
                        <path d="M8.62348588,42.4800828 L10.6555433,42.4800828 L10.6555433,46.5416433 L8.62348588,46.5416433 L8.62348588,42.4800828 L8.62348588,42.4800828 Z" id="use7661" fill="#6B6F57"></path>
                        <path d="M11.7134891,12.0183789 L13.7455465,12.0183789 L13.7455465,16.0799394 L11.7134891,16.0799394 L11.7134891,12.0183789 L11.7134891,12.0183789 Z" id="use7663" fill="#6B6F57"></path>
                        <path d="M11.7134891,17.0953296 L13.7455465,17.0953296 L13.7455465,21.1568901 L11.7134891,21.1568901 L11.7134891,17.0953296 L11.7134891,17.0953296 Z" id="use7665" fill="#6B6F57"></path>
                        <path d="M11.7134891,22.1722802 L13.7455465,22.1722802 L13.7455465,26.2338407 L11.7134891,26.2338407 L11.7134891,22.1722802 L11.7134891,22.1722802 Z" id="use7667" fill="#6B6F57"></path>
                        <path d="M11.7134891,27.2492308 L13.7455465,27.2492308 L13.7455465,31.3107913 L11.7134891,31.3107913 L11.7134891,27.2492308 L11.7134891,27.2492308 Z" id="use7669" fill="#6B6F57"></path>
                        <path d="M11.7134891,32.3261815 L13.7455465,32.3261815 L13.7455465,36.387742 L11.7134891,36.387742 L11.7134891,32.3261815 L11.7134891,32.3261815 Z" id="use7671" fill="#6B6F57"></path>
                        <path d="M11.7134891,37.4031321 L13.7455465,37.4031321 L13.7455465,41.4646926 L11.7134891,41.4646926 L11.7134891,37.4031321 L11.7134891,37.4031321 Z" id="use7673" fill="#6B6F57"></path>
                        <path d="M11.7134891,42.4800828 L13.7455465,42.4800828 L13.7455465,46.5416433 L11.7134891,46.5416433 L11.7134891,42.4800828 L11.7134891,42.4800828 Z" id="use7675" fill="#6B6F57"></path>
                    </g>
                    <g id="g7677" transform="translate(22.509628, 0.000000)">
                        <rect id="rect7679" fill="url(#linearGradient-2)" x="0.0513273303" y="0.0367753997" width="7.92505056" height="30.2586258"></rect>
                        <path d="M1.31245272,6.12911617 L3.34451014,6.12911617 L3.34451014,10.1906767 L1.31245272,10.1906767 L1.31245272,6.12911617 L1.31245272,6.12911617 Z" id="use7681" fill="#6B6F57"></path>
                        <path d="M1.31245272,11.2060668 L3.34451014,11.2060668 L3.34451014,15.2676273 L1.31245272,15.2676273 L1.31245272,11.2060668 L1.31245272,11.2060668 Z" id="use7683" fill="#6B6F57"></path>
                        <path d="M1.31245272,16.2830175 L3.34451014,16.2830175 L3.34451014,20.344578 L1.31245272,20.344578 L1.31245272,16.2830175 L1.31245272,16.2830175 Z" id="use7685" fill="#6B6F57"></path>
                        <path d="M1.31245272,21.3599681 L3.34451014,21.3599681 L3.34451014,25.4215286 L1.31245272,25.4215286 L1.31245272,21.3599681 L1.31245272,21.3599681 Z" id="use7687" fill="#6B6F57"></path>
                        <path d="M4.40244404,6.12911617 L6.43450146,6.12911617 L6.43450146,10.1906767 L4.40244404,10.1906767 L4.40244404,6.12911617 L4.40244404,6.12911617 Z" id="use7689" fill="#6B6F57"></path>
                        <path d="M4.40244404,11.2060668 L6.43450146,11.2060668 L6.43450146,15.2676273 L4.40244404,15.2676273 L4.40244404,11.2060668 L4.40244404,11.2060668 Z" id="use7691" fill="#6B6F57"></path>
                        <path d="M4.40244404,16.2830175 L6.43450146,16.2830175 L6.43450146,20.344578 L4.40244404,20.344578 L4.40244404,16.2830175 L4.40244404,16.2830175 Z" id="use7693" fill="#6B6F57"></path>
                        <path d="M4.40244404,21.3599681 L6.43450146,21.3599681 L6.43450146,25.4215286 L4.40244404,25.4215286 L4.40244404,21.3599681 L4.40244404,21.3599681 Z" id="use7695" fill="#6B6F57"></path>
                    </g>
                    <g id="g7697" transform="translate(18.450980, 24.369363)">
                        <rect id="rect7699" fill="url(#linearGradient-4)" x="0.0458508938" y="0.0367753997" width="15.4436908" height="64.5788122"></rect>
                        <path d="M2.28111168,3.08294578 L4.3131691,3.08294578 L4.3131691,7.1445063 L2.28111168,7.1445063 L2.28111168,3.08294578 L2.28111168,3.08294578 Z" id="use7701" fill="#6B6F57"></path>
                        <path d="M2.28111168,8.15989643 L4.3131691,8.15989643 L4.3131691,12.2214569 L2.28111168,12.2214569 L2.28111168,8.15989643 L2.28111168,8.15989643 Z" id="use7703" fill="#6B6F57"></path>
                        <path d="M2.28111168,13.2368471 L4.3131691,13.2368471 L4.3131691,17.2984076 L2.28111168,17.2984076 L2.28111168,13.2368471 L2.28111168,13.2368471 Z" id="use7705" fill="#6B6F57"></path>
                        <path d="M2.28111168,18.3137977 L4.3131691,18.3137977 L4.3131691,22.3753582 L2.28111168,22.3753582 L2.28111168,18.3137977 L2.28111168,18.3137977 Z" id="use7707" fill="#6B6F57"></path>
                        <path d="M2.28111168,23.3907483 L4.3131691,23.3907483 L4.3131691,27.4523089 L2.28111168,27.4523089 L2.28111168,23.3907483 L2.28111168,23.3907483 Z" id="use7709" fill="#6B6F57"></path>
                        <path d="M2.28111168,28.467699 L4.3131691,28.467699 L4.3131691,32.5292595 L2.28111168,32.5292595 L2.28111168,28.467699 L2.28111168,28.467699 Z" id="use7711" fill="#6B6F57"></path>
                        <path d="M2.28111168,33.5446496 L4.3131691,33.5446496 L4.3131691,37.6062101 L2.28111168,37.6062101 L2.28111168,33.5446496 L2.28111168,33.5446496 Z" id="use7713" fill="#6B6F57"></path>
                        <path d="M2.28111168,38.6216003 L4.3131691,38.6216003 L4.3131691,42.6831608 L2.28111168,42.6831608 L2.28111168,38.6216003 L2.28111168,38.6216003 Z" id="use7715" fill="#6B6F57"></path>
                        <path d="M2.28111168,43.6985509 L4.3131691,43.6985509 L4.3131691,47.7601114 L2.28111168,47.7601114 L2.28111168,43.6985509 L2.28111168,43.6985509 Z" id="use7717" fill="#6B6F57"></path>
                        <path d="M2.28111168,48.7755016 L4.3131691,48.7755016 L4.3131691,52.8370621 L2.28111168,52.8370621 L2.28111168,48.7755016 L2.28111168,48.7755016 Z" id="use7719" fill="#6B6F57"></path>
                        <path d="M5.37109112,3.08294578 L7.40314854,3.08294578 L7.40314854,7.1445063 L5.37109112,7.1445063 L5.37109112,3.08294578 L5.37109112,3.08294578 Z" id="use7721" fill="#6B6F57"></path>
                        <path d="M5.37109112,8.15989643 L7.40314854,8.15989643 L7.40314854,12.2214569 L5.37109112,12.2214569 L5.37109112,8.15989643 L5.37109112,8.15989643 Z" id="use7723" fill="#6B6F57"></path>
                        <path d="M5.37109112,13.2368471 L7.40314854,13.2368471 L7.40314854,17.2984076 L5.37109112,17.2984076 L5.37109112,13.2368471 L5.37109112,13.2368471 Z" id="use7725" fill="#6B6F57"></path>
                        <path d="M5.37109112,18.3137977 L7.40314854,18.3137977 L7.40314854,22.3753582 L5.37109112,22.3753582 L5.37109112,18.3137977 L5.37109112,18.3137977 Z" id="use7727" fill="#6B6F57"></path>
                        <path d="M5.37109112,23.3907483 L7.40314854,23.3907483 L7.40314854,27.4523089 L5.37109112,27.4523089 L5.37109112,23.3907483 L5.37109112,23.3907483 Z" id="use7729" fill="#6B6F57"></path>
                        <path d="M5.37109112,28.467699 L7.40314854,28.467699 L7.40314854,32.5292595 L5.37109112,32.5292595 L5.37109112,28.467699 L5.37109112,28.467699 Z" id="use7731" fill="#6B6F57"></path>
                        <path d="M5.37109112,33.5446496 L7.40314854,33.5446496 L7.40314854,37.6062101 L5.37109112,37.6062101 L5.37109112,33.5446496 L5.37109112,33.5446496 Z" id="use7733" fill="#6B6F57"></path>
                        <path d="M5.37109112,38.6216003 L7.40314854,38.6216003 L7.40314854,42.6831608 L5.37109112,42.6831608 L5.37109112,38.6216003 L5.37109112,38.6216003 Z" id="use7735" fill="#6B6F57"></path>
                        <path d="M5.37109112,43.6985509 L7.40314854,43.6985509 L7.40314854,47.7601114 L5.37109112,47.7601114 L5.37109112,43.6985509 L5.37109112,43.6985509 Z" id="use7737" fill="#6B6F57"></path>
                        <path d="M5.37109112,48.7755016 L7.40314854,48.7755016 L7.40314854,52.8370621 L5.37109112,52.8370621 L5.37109112,48.7755016 L5.37109112,48.7755016 Z" id="use7739" fill="#6B6F57"></path>
                        <path d="M8.46109433,3.08294578 L10.4931517,3.08294578 L10.4931517,7.1445063 L8.46109433,7.1445063 L8.46109433,3.08294578 L8.46109433,3.08294578 Z" id="use7741" fill="#6B6F57"></path>
                        <path d="M8.46109433,8.15989643 L10.4931517,8.15989643 L10.4931517,12.2214569 L8.46109433,12.2214569 L8.46109433,8.15989643 L8.46109433,8.15989643 Z" id="use7743" fill="#6B6F57"></path>
                        <path d="M8.46109433,13.2368471 L10.4931517,13.2368471 L10.4931517,17.2984076 L8.46109433,17.2984076 L8.46109433,13.2368471 L8.46109433,13.2368471 Z" id="use7745" fill="#6B6F57"></path>
                        <path d="M8.46109433,18.3137977 L10.4931517,18.3137977 L10.4931517,22.3753582 L8.46109433,22.3753582 L8.46109433,18.3137977 L8.46109433,18.3137977 Z" id="use7747" fill="#6B6F57"></path>
                        <path d="M8.46109433,23.3907483 L10.4931517,23.3907483 L10.4931517,27.4523089 L8.46109433,27.4523089 L8.46109433,23.3907483 L8.46109433,23.3907483 Z" id="use7749" fill="#6B6F57"></path>
                        <path d="M8.46109433,28.467699 L10.4931517,28.467699 L10.4931517,32.5292595 L8.46109433,32.5292595 L8.46109433,28.467699 L8.46109433,28.467699 Z" id="use7751" fill="#6B6F57"></path>
                        <path d="M8.46109433,33.5446496 L10.4931517,33.5446496 L10.4931517,37.6062101 L8.46109433,37.6062101 L8.46109433,33.5446496 L8.46109433,33.5446496 Z" id="use7753" fill="#6B6F57"></path>
                        <path d="M8.46109433,38.6216003 L10.4931517,38.6216003 L10.4931517,42.6831608 L8.46109433,42.6831608 L8.46109433,38.6216003 L8.46109433,38.6216003 Z" id="use7755" fill="#6B6F57"></path>
                        <path d="M8.46109433,43.6985509 L10.4931517,43.6985509 L10.4931517,47.7601114 L8.46109433,47.7601114 L8.46109433,43.6985509 L8.46109433,43.6985509 Z" id="use7757" fill="#6B6F57"></path>
                        <path d="M8.46109433,48.7755016 L10.4931517,48.7755016 L10.4931517,52.8370621 L8.46109433,52.8370621 L8.46109433,48.7755016 L8.46109433,48.7755016 Z" id="use7759" fill="#6B6F57"></path>
                        <path d="M11.5510738,3.08294578 L13.5831312,3.08294578 L13.5831312,7.1445063 L11.5510738,7.1445063 L11.5510738,3.08294578 L11.5510738,3.08294578 Z" id="use7761" fill="#6B6F57"></path>
                        <path d="M11.5510738,8.15989643 L13.5831312,8.15989643 L13.5831312,12.2214569 L11.5510738,12.2214569 L11.5510738,8.15989643 L11.5510738,8.15989643 Z" id="use7763" fill="#6B6F57"></path>
                        <path d="M11.5510738,13.2368471 L13.5831312,13.2368471 L13.5831312,17.2984076 L11.5510738,17.2984076 L11.5510738,13.2368471 L11.5510738,13.2368471 Z" id="use7765" fill="#6B6F57"></path>
                        <path d="M11.5510738,18.3137977 L13.5831312,18.3137977 L13.5831312,22.3753582 L11.5510738,22.3753582 L11.5510738,18.3137977 L11.5510738,18.3137977 Z" id="use7767" fill="#6B6F57"></path>
                        <path d="M11.5510738,23.3907483 L13.5831312,23.3907483 L13.5831312,27.4523089 L11.5510738,27.4523089 L11.5510738,23.3907483 L11.5510738,23.3907483 Z" id="use7769" fill="#6B6F57"></path>
                        <path d="M11.5510738,28.467699 L13.5831312,28.467699 L13.5831312,32.5292595 L11.5510738,32.5292595 L11.5510738,28.467699 L11.5510738,28.467699 Z" id="use7771" fill="#6B6F57"></path>
                        <path d="M11.5510738,33.5446496 L13.5831312,33.5446496 L13.5831312,37.6062101 L11.5510738,37.6062101 L11.5510738,33.5446496 L11.5510738,33.5446496 Z" id="use7773" fill="#6B6F57"></path>
                        <path d="M11.5510738,38.6216003 L13.5831312,38.6216003 L13.5831312,42.6831608 L11.5510738,42.6831608 L11.5510738,38.6216003 L11.5510738,38.6216003 Z" id="use7775" fill="#6B6F57"></path>
                        <path d="M11.5510738,43.6985509 L13.5831312,43.6985509 L13.5831312,47.7601114 L11.5510738,47.7601114 L11.5510738,43.6985509 L11.5510738,43.6985509 Z" id="use7777" fill="#6B6F57"></path>
                        <path d="M11.5510738,48.7755016 L13.5831312,48.7755016 L13.5831312,52.8370621 L11.5510738,52.8370621 L11.5510738,48.7755016 L11.5510738,48.7755016 Z" id="use7779" fill="#6B6F57"></path>
                    </g>
                    <rect id="rect7781" fill="#BBC0B1" x="15.6519359" y="46.5416433" width="21.5398849" height="76.1542596"></rect>
                    <path d="M17.8871967,51.0093598 L19.9192541,51.0093598 L19.9192541,55.0709203 L17.8871967,55.0709203 L17.8871967,51.0093598 L17.8871967,51.0093598 Z" id="path7783" fill="#6B6F57"></path>
                    <path d="M17.8871967,51.0093598 L19.9192541,51.0093598 L19.9192541,55.0709203 L17.8871967,55.0709203 L17.8871967,51.0093598 L17.8871967,51.0093598 Z" id="use7785" fill="#6B6F57"></path>
                    <path d="M17.8871967,56.0863105 L19.9192541,56.0863105 L19.9192541,60.147871 L17.8871967,60.147871 L17.8871967,56.0863105 L17.8871967,56.0863105 Z" id="use7787" fill="#6B6F57"></path>
                    <path d="M17.8871967,61.1632611 L19.9192541,61.1632611 L19.9192541,65.2248216 L17.8871967,65.2248216 L17.8871967,61.1632611 L17.8871967,61.1632611 Z" id="use7789" fill="#6B6F57"></path>
                    <path d="M17.8871967,66.2402118 L19.9192541,66.2402118 L19.9192541,70.3017723 L17.8871967,70.3017723 L17.8871967,66.2402118 L17.8871967,66.2402118 Z" id="use7791" fill="#6B6F57"></path>
                    <path d="M17.8871967,71.3171624 L19.9192541,71.3171624 L19.9192541,75.3787229 L17.8871967,75.3787229 L17.8871967,71.3171624 L17.8871967,71.3171624 Z" id="use7793" fill="#6B6F57"></path>
                    <path d="M17.8871967,76.394113 L19.9192541,76.394113 L19.9192541,80.4556736 L17.8871967,80.4556736 L17.8871967,76.394113 L17.8871967,76.394113 Z" id="use7795" fill="#6B6F57"></path>
                    <path d="M17.8871967,81.4710637 L19.9192541,81.4710637 L19.9192541,85.5326242 L17.8871967,85.5326242 L17.8871967,81.4710637 L17.8871967,81.4710637 Z" id="use7797" fill="#6B6F57"></path>
                    <path d="M17.8871967,86.5480143 L19.9192541,86.5480143 L19.9192541,90.6095748 L17.8871967,90.6095748 L17.8871967,86.5480143 L17.8871967,86.5480143 Z" id="use7799" fill="#6B6F57"></path>
                    <path d="M17.8871967,91.624965 L19.9192541,91.624965 L19.9192541,95.6865255 L17.8871967,95.6865255 L17.8871967,91.624965 L17.8871967,91.624965 Z" id="use7801" fill="#6B6F57"></path>
                    <path d="M17.8871967,96.7019156 L19.9192541,96.7019156 L19.9192541,100.763476 L17.8871967,100.763476 L17.8871967,96.7019156 L17.8871967,96.7019156 Z" id="use7803" fill="#6B6F57"></path>
                    <path d="M17.8871967,101.778866 L19.9192541,101.778866 L19.9192541,105.840427 L17.8871967,105.840427 L17.8871967,101.778866 L17.8871967,101.778866 Z" id="use7805" fill="#6B6F57"></path>
                    <path d="M17.8871967,106.855817 L19.9192541,106.855817 L19.9192541,110.917377 L17.8871967,110.917377 L17.8871967,106.855817 L17.8871967,106.855817 Z" id="use7807" fill="#6B6F57"></path>
                    <path d="M20.9771999,51.0093598 L23.0092573,51.0093598 L23.0092573,55.0709203 L20.9771999,55.0709203 L20.9771999,51.0093598 L20.9771999,51.0093598 Z" id="use7809" fill="#6B6F57"></path>
                    <path d="M20.9771999,56.0863105 L23.0092573,56.0863105 L23.0092573,60.147871 L20.9771999,60.147871 L20.9771999,56.0863105 L20.9771999,56.0863105 Z" id="use7811" fill="#6B6F57"></path>
                    <path d="M20.9771999,61.1632611 L23.0092573,61.1632611 L23.0092573,65.2248216 L20.9771999,65.2248216 L20.9771999,61.1632611 L20.9771999,61.1632611 Z" id="use7813" fill="#6B6F57"></path>
                    <path d="M20.9771999,66.2402118 L23.0092573,66.2402118 L23.0092573,70.3017723 L20.9771999,70.3017723 L20.9771999,66.2402118 L20.9771999,66.2402118 Z" id="use7815" fill="#6B6F57"></path>
                    <path d="M20.9771999,71.3171624 L23.0092573,71.3171624 L23.0092573,75.3787229 L20.9771999,75.3787229 L20.9771999,71.3171624 L20.9771999,71.3171624 Z" id="use7817" fill="#6B6F57"></path>
                    <path d="M20.9771999,76.394113 L23.0092573,76.394113 L23.0092573,80.4556736 L20.9771999,80.4556736 L20.9771999,76.394113 L20.9771999,76.394113 Z" id="use7819" fill="#6B6F57"></path>
                    <path d="M20.9771999,81.4710637 L23.0092573,81.4710637 L23.0092573,85.5326242 L20.9771999,85.5326242 L20.9771999,81.4710637 L20.9771999,81.4710637 Z" id="use7821" fill="#6B6F57"></path>
                    <path d="M20.9771999,86.5480143 L23.0092573,86.5480143 L23.0092573,90.6095748 L20.9771999,90.6095748 L20.9771999,86.5480143 L20.9771999,86.5480143 Z" id="use7823" fill="#6B6F57"></path>
                    <path d="M20.9771999,91.624965 L23.0092573,91.624965 L23.0092573,95.6865255 L20.9771999,95.6865255 L20.9771999,91.624965 L20.9771999,91.624965 Z" id="use7825" fill="#6B6F57"></path>
                    <path d="M20.9771999,96.7019156 L23.0092573,96.7019156 L23.0092573,100.763476 L20.9771999,100.763476 L20.9771999,96.7019156 L20.9771999,96.7019156 Z" id="use7827" fill="#6B6F57"></path>
                    <path d="M20.9771999,101.778866 L23.0092573,101.778866 L23.0092573,105.840427 L20.9771999,105.840427 L20.9771999,101.778866 L20.9771999,101.778866 Z" id="use7829" fill="#6B6F57"></path>
                    <path d="M20.9771999,106.855817 L23.0092573,106.855817 L23.0092573,110.917377 L20.9771999,110.917377 L20.9771999,106.855817 L20.9771999,106.855817 Z" id="use7831" fill="#6B6F57"></path>
                    <path d="M24.0671793,51.0093598 L26.0992367,51.0093598 L26.0992367,55.0709203 L24.0671793,55.0709203 L24.0671793,51.0093598 L24.0671793,51.0093598 Z" id="use7833" fill="#6B6F57"></path>
                    <path d="M24.0671793,56.0863105 L26.0992367,56.0863105 L26.0992367,60.147871 L24.0671793,60.147871 L24.0671793,56.0863105 L24.0671793,56.0863105 Z" id="use7835" fill="#6B6F57"></path>
                    <path d="M24.0671793,61.1632611 L26.0992367,61.1632611 L26.0992367,65.2248216 L24.0671793,65.2248216 L24.0671793,61.1632611 L24.0671793,61.1632611 Z" id="use7837" fill="#6B6F57"></path>
                    <path d="M24.0671793,66.2402118 L26.0992367,66.2402118 L26.0992367,70.3017723 L24.0671793,70.3017723 L24.0671793,66.2402118 L24.0671793,66.2402118 Z" id="use7839" fill="#6B6F57"></path>
                    <path d="M24.0671793,71.3171624 L26.0992367,71.3171624 L26.0992367,75.3787229 L24.0671793,75.3787229 L24.0671793,71.3171624 L24.0671793,71.3171624 Z" id="use7841" fill="#6B6F57"></path>
                    <path d="M24.0671793,76.394113 L26.0992367,76.394113 L26.0992367,80.4556736 L24.0671793,80.4556736 L24.0671793,76.394113 L24.0671793,76.394113 Z" id="use7843" fill="#6B6F57"></path>
                    <path d="M24.0671793,81.4710637 L26.0992367,81.4710637 L26.0992367,85.5326242 L24.0671793,85.5326242 L24.0671793,81.4710637 L24.0671793,81.4710637 Z" id="use7845" fill="#6B6F57"></path>
                    <path d="M24.0671793,86.5480143 L26.0992367,86.5480143 L26.0992367,90.6095748 L24.0671793,90.6095748 L24.0671793,86.5480143 L24.0671793,86.5480143 Z" id="use7847" fill="#6B6F57"></path>
                    <path d="M24.0671793,91.624965 L26.0992367,91.624965 L26.0992367,95.6865255 L24.0671793,95.6865255 L24.0671793,91.624965 L24.0671793,91.624965 Z" id="use7849" fill="#6B6F57"></path>
                    <path d="M24.0671793,96.7019156 L26.0992367,96.7019156 L26.0992367,100.763476 L24.0671793,100.763476 L24.0671793,96.7019156 L24.0671793,96.7019156 Z" id="use7851" fill="#6B6F57"></path>
                    <path d="M24.0671793,101.778866 L26.0992367,101.778866 L26.0992367,105.840427 L24.0671793,105.840427 L24.0671793,101.778866 L24.0671793,101.778866 Z" id="use7853" fill="#6B6F57"></path>
                    <path d="M24.0671793,106.855817 L26.0992367,106.855817 L26.0992367,110.917377 L24.0671793,110.917377 L24.0671793,106.855817 L24.0671793,106.855817 Z" id="use7855" fill="#6B6F57"></path>
                    <path d="M27.1571825,51.0093598 L29.1892399,51.0093598 L29.1892399,55.0709203 L27.1571825,55.0709203 L27.1571825,51.0093598 L27.1571825,51.0093598 Z" id="use7857" fill="#6B6F57"></path>
                    <path d="M27.1571825,56.0863105 L29.1892399,56.0863105 L29.1892399,60.147871 L27.1571825,60.147871 L27.1571825,56.0863105 L27.1571825,56.0863105 Z" id="use7859" fill="#6B6F57"></path>
                    <path d="M27.1571825,61.1632611 L29.1892399,61.1632611 L29.1892399,65.2248216 L27.1571825,65.2248216 L27.1571825,61.1632611 L27.1571825,61.1632611 Z" id="use7861" fill="#6B6F57"></path>
                    <path d="M27.1571825,66.2402118 L29.1892399,66.2402118 L29.1892399,70.3017723 L27.1571825,70.3017723 L27.1571825,66.2402118 L27.1571825,66.2402118 Z" id="use7863" fill="#6B6F57"></path>
                    <path d="M27.1571825,71.3171624 L29.1892399,71.3171624 L29.1892399,75.3787229 L27.1571825,75.3787229 L27.1571825,71.3171624 L27.1571825,71.3171624 Z" id="use7865" fill="#6B6F57"></path>
                    <path d="M27.1571825,76.394113 L29.1892399,76.394113 L29.1892399,80.4556736 L27.1571825,80.4556736 L27.1571825,76.394113 L27.1571825,76.394113 Z" id="use7867" fill="#6B6F57"></path>
                    <path d="M27.1571825,81.4710637 L29.1892399,81.4710637 L29.1892399,85.5326242 L27.1571825,85.5326242 L27.1571825,81.4710637 L27.1571825,81.4710637 Z" id="use7869" fill="#6B6F57"></path>
                    <path d="M27.1571825,86.5480143 L29.1892399,86.5480143 L29.1892399,90.6095748 L27.1571825,90.6095748 L27.1571825,86.5480143 L27.1571825,86.5480143 Z" id="use7871" fill="#6B6F57"></path>
                    <path d="M27.1571825,91.624965 L29.1892399,91.624965 L29.1892399,95.6865255 L27.1571825,95.6865255 L27.1571825,91.624965 L27.1571825,91.624965 Z" id="use7873" fill="#6B6F57"></path>
                    <path d="M27.1571825,96.7019156 L29.1892399,96.7019156 L29.1892399,100.763476 L27.1571825,100.763476 L27.1571825,96.7019156 L27.1571825,96.7019156 Z" id="use7875" fill="#6B6F57"></path>
                    <path d="M27.1571825,101.778866 L29.1892399,101.778866 L29.1892399,105.840427 L27.1571825,105.840427 L27.1571825,101.778866 L27.1571825,101.778866 Z" id="use7877" fill="#6B6F57"></path>
                    <path d="M27.1571825,106.855817 L29.1892399,106.855817 L29.1892399,110.917377 L27.1571825,110.917377 L27.1571825,106.855817 L27.1571825,106.855817 Z" id="use7879" fill="#6B6F57"></path>
                    <path d="M30.247162,51.0093598 L32.2792194,51.0093598 L32.2792194,55.0709203 L30.247162,55.0709203 L30.247162,51.0093598 L30.247162,51.0093598 Z" id="use7881" fill="#6B6F57"></path>
                    <path d="M30.247162,56.0863105 L32.2792194,56.0863105 L32.2792194,60.147871 L30.247162,60.147871 L30.247162,56.0863105 L30.247162,56.0863105 Z" id="use7883" fill="#6B6F57"></path>
                    <path d="M30.247162,61.1632611 L32.2792194,61.1632611 L32.2792194,65.2248216 L30.247162,65.2248216 L30.247162,61.1632611 L30.247162,61.1632611 Z" id="use7885" fill="#6B6F57"></path>
                    <path d="M30.247162,66.2402118 L32.2792194,66.2402118 L32.2792194,70.3017723 L30.247162,70.3017723 L30.247162,66.2402118 L30.247162,66.2402118 Z" id="use7887" fill="#6B6F57"></path>
                    <path d="M30.247162,71.3171624 L32.2792194,71.3171624 L32.2792194,75.3787229 L30.247162,75.3787229 L30.247162,71.3171624 L30.247162,71.3171624 Z" id="use7889" fill="#6B6F57"></path>
                    <path d="M30.247162,76.394113 L32.2792194,76.394113 L32.2792194,80.4556736 L30.247162,80.4556736 L30.247162,76.394113 L30.247162,76.394113 Z" id="use7891" fill="#6B6F57"></path>
                    <path d="M30.247162,81.4710637 L32.2792194,81.4710637 L32.2792194,85.5326242 L30.247162,85.5326242 L30.247162,81.4710637 L30.247162,81.4710637 Z" id="use7893" fill="#6B6F57"></path>
                    <path d="M30.247162,86.5480143 L32.2792194,86.5480143 L32.2792194,90.6095748 L30.247162,90.6095748 L30.247162,86.5480143 L30.247162,86.5480143 Z" id="use7895" fill="#6B6F57"></path>
                    <path d="M30.247162,91.624965 L32.2792194,91.624965 L32.2792194,95.6865255 L30.247162,95.6865255 L30.247162,91.624965 L30.247162,91.624965 Z" id="use7897" fill="#6B6F57"></path>
                    <path d="M30.247162,96.7019156 L32.2792194,96.7019156 L32.2792194,100.763476 L30.247162,100.763476 L30.247162,96.7019156 L30.247162,96.7019156 Z" id="use7899" fill="#6B6F57"></path>
                    <path d="M30.247162,101.778866 L32.2792194,101.778866 L32.2792194,105.840427 L30.247162,105.840427 L30.247162,101.778866 L30.247162,101.778866 Z" id="use7901" fill="#6B6F57"></path>
                    <path d="M30.247162,106.855817 L32.2792194,106.855817 L32.2792194,110.917377 L30.247162,110.917377 L30.247162,106.855817 L30.247162,106.855817 Z" id="use7903" fill="#6B6F57"></path>
                    <path d="M33.3371652,51.0093598 L35.3692226,51.0093598 L35.3692226,55.0709203 L33.3371652,55.0709203 L33.3371652,51.0093598 L33.3371652,51.0093598 Z" id="use7905" fill="#6B6F57"></path>
                    <path d="M33.3371652,56.0863105 L35.3692226,56.0863105 L35.3692226,60.147871 L33.3371652,60.147871 L33.3371652,56.0863105 L33.3371652,56.0863105 Z" id="use7907" fill="#6B6F57"></path>
                    <path d="M33.3371652,61.1632611 L35.3692226,61.1632611 L35.3692226,65.2248216 L33.3371652,65.2248216 L33.3371652,61.1632611 L33.3371652,61.1632611 Z" id="use7909" fill="#6B6F57"></path>
                    <path d="M33.3371652,66.2402118 L35.3692226,66.2402118 L35.3692226,70.3017723 L33.3371652,70.3017723 L33.3371652,66.2402118 L33.3371652,66.2402118 Z" id="use7911" fill="#6B6F57"></path>
                    <path d="M33.3371652,71.3171624 L35.3692226,71.3171624 L35.3692226,75.3787229 L33.3371652,75.3787229 L33.3371652,71.3171624 L33.3371652,71.3171624 Z" id="use7913" fill="#6B6F57"></path>
                    <path d="M33.3371652,76.394113 L35.3692226,76.394113 L35.3692226,80.4556736 L33.3371652,80.4556736 L33.3371652,76.394113 L33.3371652,76.394113 Z" id="use7915" fill="#6B6F57"></path>
                    <path d="M33.3371652,81.4710637 L35.3692226,81.4710637 L35.3692226,85.5326242 L33.3371652,85.5326242 L33.3371652,81.4710637 L33.3371652,81.4710637 Z" id="use7917" fill="#6B6F57"></path>
                    <path d="M33.3371652,86.5480143 L35.3692226,86.5480143 L35.3692226,90.6095748 L33.3371652,90.6095748 L33.3371652,86.5480143 L33.3371652,86.5480143 Z" id="use7919" fill="#6B6F57"></path>
                    <path d="M33.3371652,91.624965 L35.3692226,91.624965 L35.3692226,95.6865255 L33.3371652,95.6865255 L33.3371652,91.624965 L33.3371652,91.624965 Z" id="use7921" fill="#6B6F57"></path>
                    <path d="M33.3371652,96.7019156 L35.3692226,96.7019156 L35.3692226,100.763476 L33.3371652,100.763476 L33.3371652,96.7019156 L33.3371652,96.7019156 Z" id="use7923" fill="#6B6F57"></path>
                    <path d="M33.3371652,101.778866 L35.3692226,101.778866 L35.3692226,105.840427 L33.3371652,105.840427 L33.3371652,101.778866 L33.3371652,101.778866 Z" id="use7925" fill="#6B6F57"></path>
                    <path d="M33.3371652,106.855817 L35.3692226,106.855817 L35.3692226,110.917377 L33.3371652,110.917377 L33.3371652,106.855817 L33.3371652,106.855817 Z" id="use7927" fill="#6B6F57"></path>
                    <g id="g7929" transform="translate(0.000000, 64.172656)">
                        <rect id="rect7931" fill="url(#linearGradient-2)" x="0.208242447" y="10.3937547" width="15.4436908" height="47.9264141"></rect>
                        <path d="M2.44350323,12.0183789 L4.47556065,12.0183789 L4.47556065,16.0799394 L2.44350323,16.0799394 L2.44350323,12.0183789 L2.44350323,12.0183789 Z" id="use7933" fill="#6B6F57"></path>
                        <path d="M2.44350323,17.0953296 L4.47556065,17.0953296 L4.47556065,21.1568901 L2.44350323,21.1568901 L2.44350323,17.0953296 L2.44350323,17.0953296 Z" id="use7935" fill="#6B6F57"></path>
                        <path d="M2.44350323,22.1722802 L4.47556065,22.1722802 L4.47556065,26.2338407 L2.44350323,26.2338407 L2.44350323,22.1722802 L2.44350323,22.1722802 Z" id="use7937" fill="#6B6F57"></path>
                        <path d="M2.44350323,27.2492308 L4.47556065,27.2492308 L4.47556065,31.3107913 L2.44350323,31.3107913 L2.44350323,27.2492308 L2.44350323,27.2492308 Z" id="use7939" fill="#6B6F57"></path>
                        <path d="M2.44350323,32.3261815 L4.47556065,32.3261815 L4.47556065,36.387742 L2.44350323,36.387742 L2.44350323,32.3261815 L2.44350323,32.3261815 Z" id="use7941" fill="#6B6F57"></path>
                        <path d="M2.44350323,37.4031321 L4.47556065,37.4031321 L4.47556065,41.4646926 L2.44350323,41.4646926 L2.44350323,37.4031321 L2.44350323,37.4031321 Z" id="use7943" fill="#6B6F57"></path>
                        <path d="M2.44350323,42.4800828 L4.47556065,42.4800828 L4.47556065,46.5416433 L2.44350323,46.5416433 L2.44350323,42.4800828 L2.44350323,42.4800828 Z" id="use7945" fill="#6B6F57"></path>
                        <g id="g7947" transform="translate(8.483467, 0.000000)" fill="#6B6F57">
                            <path d="M0.140024684,0.0367753997 L2.1720821,0.0367753997 L2.1720821,4.09833591 L0.140024684,4.09833591 L0.140024684,0.0367753997 L0.140024684,0.0367753997 Z" id="use7949"></path>
                            <path d="M0.140024684,5.11372604 L2.1720821,5.11372604 L2.1720821,9.17528655 L0.140024684,9.17528655 L0.140024684,5.11372604 L0.140024684,5.11372604 Z" id="use7951"></path>
                            <path d="M3.23000413,0.0367753997 L5.26206154,0.0367753997 L5.26206154,4.09833591 L3.23000413,4.09833591 L3.23000413,0.0367753997 L3.23000413,0.0367753997 Z" id="use7953"></path>
                            <path d="M3.23000413,5.11372604 L5.26206154,5.11372604 L5.26206154,9.17528655 L3.23000413,9.17528655 L3.23000413,5.11372604 L3.23000413,5.11372604 Z" id="use7955"></path>
                        </g>
                        <path d="M5.53350644,12.0183789 L7.56556386,12.0183789 L7.56556386,16.0799394 L5.53350644,16.0799394 L5.53350644,12.0183789 L5.53350644,12.0183789 Z" id="use7957" fill="#6B6F57"></path>
                        <path d="M5.53350644,17.0953296 L7.56556386,17.0953296 L7.56556386,21.1568901 L5.53350644,21.1568901 L5.53350644,17.0953296 L5.53350644,17.0953296 Z" id="use7959" fill="#6B6F57"></path>
                        <path d="M5.53350644,22.1722802 L7.56556386,22.1722802 L7.56556386,26.2338407 L5.53350644,26.2338407 L5.53350644,22.1722802 L5.53350644,22.1722802 Z" id="use7961" fill="#6B6F57"></path>
                        <path d="M5.53350644,27.2492308 L7.56556386,27.2492308 L7.56556386,31.3107913 L5.53350644,31.3107913 L5.53350644,27.2492308 L5.53350644,27.2492308 Z" id="use7963" fill="#6B6F57"></path>
                        <path d="M5.53350644,32.3261815 L7.56556386,32.3261815 L7.56556386,36.387742 L5.53350644,36.387742 L5.53350644,32.3261815 L5.53350644,32.3261815 Z" id="use7965" fill="#6B6F57"></path>
                        <path d="M5.53350644,37.4031321 L7.56556386,37.4031321 L7.56556386,41.4646926 L5.53350644,41.4646926 L5.53350644,37.4031321 L5.53350644,37.4031321 Z" id="use7967" fill="#6B6F57"></path>
                        <path d="M5.53350644,42.4800828 L7.56556386,42.4800828 L7.56556386,46.5416433 L5.53350644,46.5416433 L5.53350644,42.4800828 L5.53350644,42.4800828 Z" id="use7969" fill="#6B6F57"></path>
                        <path d="M8.62348588,12.0183789 L10.6555433,12.0183789 L10.6555433,16.0799394 L8.62348588,16.0799394 L8.62348588,12.0183789 L8.62348588,12.0183789 Z" id="use7971" fill="#6B6F57"></path>
                        <path d="M8.62348588,17.0953296 L10.6555433,17.0953296 L10.6555433,21.1568901 L8.62348588,21.1568901 L8.62348588,17.0953296 L8.62348588,17.0953296 Z" id="use7973" fill="#6B6F57"></path>
                        <path d="M8.62348588,22.1722802 L10.6555433,22.1722802 L10.6555433,26.2338407 L8.62348588,26.2338407 L8.62348588,22.1722802 L8.62348588,22.1722802 Z" id="use7975" fill="#6B6F57"></path>
                        <path d="M8.62348588,27.2492308 L10.6555433,27.2492308 L10.6555433,31.3107913 L8.62348588,31.3107913 L8.62348588,27.2492308 L8.62348588,27.2492308 Z" id="use7977" fill="#6B6F57"></path>
                        <path d="M8.62348588,32.3261815 L10.6555433,32.3261815 L10.6555433,36.387742 L8.62348588,36.387742 L8.62348588,32.3261815 L8.62348588,32.3261815 Z" id="use7979" fill="#6B6F57"></path>
                        <path d="M8.62348588,37.4031321 L10.6555433,37.4031321 L10.6555433,41.4646926 L8.62348588,41.4646926 L8.62348588,37.4031321 L8.62348588,37.4031321 Z" id="use7981" fill="#6B6F57"></path>
                        <path d="M8.62348588,42.4800828 L10.6555433,42.4800828 L10.6555433,46.5416433 L8.62348588,46.5416433 L8.62348588,42.4800828 L8.62348588,42.4800828 Z" id="use7983" fill="#6B6F57"></path>
                        <path d="M11.7134891,12.0183789 L13.7455465,12.0183789 L13.7455465,16.0799394 L11.7134891,16.0799394 L11.7134891,12.0183789 L11.7134891,12.0183789 Z" id="use7985" fill="#6B6F57"></path>
                        <path d="M11.7134891,17.0953296 L13.7455465,17.0953296 L13.7455465,21.1568901 L11.7134891,21.1568901 L11.7134891,17.0953296 L11.7134891,17.0953296 Z" id="use7987" fill="#6B6F57"></path>
                        <path d="M11.7134891,22.1722802 L13.7455465,22.1722802 L13.7455465,26.2338407 L11.7134891,26.2338407 L11.7134891,22.1722802 L11.7134891,22.1722802 Z" id="use7989" fill="#6B6F57"></path>
                        <path d="M11.7134891,27.2492308 L13.7455465,27.2492308 L13.7455465,31.3107913 L11.7134891,31.3107913 L11.7134891,27.2492308 L11.7134891,27.2492308 Z" id="use7991" fill="#6B6F57"></path>
                        <path d="M11.7134891,32.3261815 L13.7455465,32.3261815 L13.7455465,36.387742 L11.7134891,36.387742 L11.7134891,32.3261815 L11.7134891,32.3261815 Z" id="use7993" fill="#6B6F57"></path>
                        <path d="M11.7134891,37.4031321 L13.7455465,37.4031321 L13.7455465,41.4646926 L11.7134891,41.4646926 L11.7134891,37.4031321 L11.7134891,37.4031321 Z" id="use7995" fill="#6B6F57"></path>
                        <path d="M11.7134891,42.4800828 L13.7455465,42.4800828 L13.7455465,46.5416433 L11.7134891,46.5416433 L11.7134891,42.4800828 L11.7134891,42.4800828 Z" id="use7997" fill="#6B6F57"></path>
                    </g>
                </g>
                <g id="g7595" transform="translate(77.342356, 66.963248)" sketch:type="MSShapeGroup">
                    <path d="M0.0780204564,0.0174682987 L41.5700738,0.0174682987 L41.5700738,55.2675162 L0.0780204564,55.2675162 L0.0780204564,0.0174682987 L0.0780204564,0.0174682987 Z" id="rect3812" fill="#349BA4"></path>
                    <g id="g4084" transform="translate(0.325611, 2.226706)" fill="#72CCCF">
                        <path d="M0.208235466,0.0167307275 L0.208235466,3.88464446 L2.47289568,3.88464446 L2.47289568,0.0167307275 L0.208235466,0.0167307275 L0.208235466,0.0167307275 Z M3.15688338,0.0167307275 L3.15688338,3.88464446 L5.42154359,3.88464446 L5.42154359,0.0167307275 L3.15688338,0.0167307275 L3.15688338,0.0167307275 Z M6.10136003,0.0167307275 L6.10136003,3.88464446 L8.3701915,3.88464446 L8.3701915,0.0167307275 L6.10136003,0.0167307275 L6.10136003,0.0167307275 Z M9.05000482,0.0167307275 L9.05000482,3.88464446 L11.3146682,3.88464446 L11.3146682,0.0167307275 L9.05000482,0.0167307275 L9.05000482,0.0167307275 Z M11.9986527,0.0167307275 L11.9986527,3.88464446 L14.2633161,3.88464446 L14.2633161,0.0167307275 L11.9986527,0.0167307275 L11.9986527,0.0167307275 Z M14.9431294,0.0167307275 L14.9431294,3.88464446 L17.2119609,3.88464446 L17.2119609,0.0167307275 L14.9431294,0.0167307275 L14.9431294,0.0167307275 Z M17.8917773,0.0167307275 L17.8917773,3.88464446 L20.1564375,3.88464446 L20.1564375,0.0167307275 L17.8917773,0.0167307275 L17.8917773,0.0167307275 Z M20.8404252,0.0167307275 L20.8404252,3.88464446 L23.1050854,3.88464446 L23.1050854,0.0167307275 L20.8404252,0.0167307275 L20.8404252,0.0167307275 Z M23.7849019,0.0167307275 L23.7849019,3.88464446 L26.0537333,3.88464446 L26.0537333,0.0167307275 L23.7849019,0.0167307275 L23.7849019,0.0167307275 Z M26.7335498,0.0167307275 L26.7335498,3.88464446 L28.99821,3.88464446 L28.99821,0.0167307275 L26.7335498,0.0167307275 L26.7335498,0.0167307275 Z M29.6821946,0.0167307275 L29.6821946,3.88464446 L31.9468579,3.88464446 L31.9468579,0.0167307275 L29.6821946,0.0167307275 L29.6821946,0.0167307275 Z M32.6266712,0.0167307275 L32.6266712,3.88464446 L34.8955027,3.88464446 L34.8955027,0.0167307275 L32.6266712,0.0167307275 L32.6266712,0.0167307275 Z M35.5753191,0.0167307275 L35.5753191,3.88464446 L37.8399793,3.88464446 L37.8399793,0.0167307275 L35.5753191,0.0167307275 L35.5753191,0.0167307275 Z M38.523967,0.0167307275 L38.523967,3.88464446 L40.7886272,3.88464446 L40.7886272,0.0167307275 L38.523967,0.0167307275 L38.523967,0.0167307275 Z" id="rect4086"></path>
                    </g>
                    <path d="M0.53384319,2.24238964 L0.53384319,6.11030337 L2.79850443,6.11030337 L2.79850443,2.24238964 L0.53384319,2.24238964 L0.53384319,2.24238964 Z M3.4824905,2.24238964 L3.4824905,6.11030337 L5.74715169,6.11030337 L5.74715169,2.24238964 L3.4824905,2.24238964 L3.4824905,2.24238964 Z M6.42696711,2.24238964 L6.42696711,6.11030337 L8.69579897,6.11030337 L8.69579897,2.24238964 L6.42696711,2.24238964 L6.42696711,2.24238964 Z M9.3756144,2.24238964 L9.3756144,6.11030337 L11.6402756,6.11030337 L11.6402756,2.24238964 L9.3756144,2.24238964 L9.3756144,2.24238964 Z M12.3242617,2.24238964 L12.3242617,6.11030337 L14.5889229,6.11030337 L14.5889229,2.24238964 L12.3242617,2.24238964 L12.3242617,2.24238964 Z M15.2687383,2.24238964 L15.2687383,6.11030337 L17.5375698,6.11030337 L17.5375698,2.24238964 L15.2687383,2.24238964 L15.2687383,2.24238964 Z M18.2173852,2.24238964 L18.2173852,6.11030337 L20.4820464,6.11030337 L20.4820464,2.24238964 L18.2173852,2.24238964 L18.2173852,2.24238964 Z M21.1660325,2.24238964 L21.1660325,6.11030337 L23.4306937,6.11030337 L23.4306937,2.24238964 L21.1660325,2.24238964 L21.1660325,2.24238964 Z M24.1105091,2.24238964 L24.1105091,6.11030337 L26.379341,6.11030337 L26.379341,2.24238964 L24.1105091,2.24238964 L24.1105091,2.24238964 Z M27.0591564,2.24238964 L27.0591564,6.11030337 L29.3238176,6.11030337 L29.3238176,2.24238964 L27.0591564,2.24238964 L27.0591564,2.24238964 Z M30.0078037,2.24238964 L30.0078037,6.11030337 L32.2724649,6.11030337 L32.2724649,2.24238964 L30.0078037,2.24238964 L30.0078037,2.24238964 Z M32.9522803,2.24238964 L32.9522803,6.11030337 L35.2211122,6.11030337 L35.2211122,2.24238964 L32.9522803,2.24238964 L32.9522803,2.24238964 Z M35.9009276,2.24238964 L35.9009276,6.11030337 L38.1655888,6.11030337 L38.1655888,2.24238964 L35.9009276,2.24238964 L35.9009276,2.24238964 Z M38.8495749,2.24238964 L38.8495749,6.11030337 L41.1142361,6.11030337 L41.1142361,2.24238964 L38.8495749,2.24238964 L38.8495749,2.24238964 Z M0.53384319,7.0772818 L0.53384319,10.9451955 L2.79850443,10.9451955 L2.79850443,7.0772818 L0.53384319,7.0772818 L0.53384319,7.0772818 Z M3.4824905,7.0772818 L3.4824905,10.9451955 L5.74715169,10.9451955 L5.74715169,7.0772818 L3.4824905,7.0772818 L3.4824905,7.0772818 Z M6.42696711,7.0772818 L6.42696711,10.9451955 L8.69579897,10.9451955 L8.69579897,7.0772818 L6.42696711,7.0772818 L6.42696711,7.0772818 Z M9.3756144,7.0772818 L9.3756144,10.9451955 L11.6402756,10.9451955 L11.6402756,7.0772818 L9.3756144,7.0772818 L9.3756144,7.0772818 Z M12.3242617,7.0772818 L12.3242617,10.9451955 L14.5889229,10.9451955 L14.5889229,7.0772818 L12.3242617,7.0772818 L12.3242617,7.0772818 Z M15.2687383,7.0772818 L15.2687383,10.9451955 L17.5375698,10.9451955 L17.5375698,7.0772818 L15.2687383,7.0772818 L15.2687383,7.0772818 Z M18.2173852,7.0772818 L18.2173852,10.9451955 L20.4820464,10.9451955 L20.4820464,7.0772818 L18.2173852,7.0772818 L18.2173852,7.0772818 Z M21.1660325,7.0772818 L21.1660325,10.9451955 L23.4306937,10.9451955 L23.4306937,7.0772818 L21.1660325,7.0772818 L21.1660325,7.0772818 Z M24.1105091,7.0772818 L24.1105091,10.9451955 L26.379341,10.9451955 L26.379341,7.0772818 L24.1105091,7.0772818 L24.1105091,7.0772818 Z M27.0591564,7.0772818 L27.0591564,10.9451955 L29.3238176,10.9451955 L29.3238176,7.0772818 L27.0591564,7.0772818 L27.0591564,7.0772818 Z M30.0078037,7.0772818 L30.0078037,10.9451955 L32.2724649,10.9451955 L32.2724649,7.0772818 L30.0078037,7.0772818 L30.0078037,7.0772818 Z M32.9522803,7.0772818 L32.9522803,10.9451955 L35.2211122,10.9451955 L35.2211122,7.0772818 L32.9522803,7.0772818 L32.9522803,7.0772818 Z M35.9009276,7.0772818 L35.9009276,10.9451955 L38.1655888,10.9451955 L38.1655888,7.0772818 L35.9009276,7.0772818 L35.9009276,7.0772818 Z M38.8495749,7.0772818 L38.8495749,10.9451955 L41.1142361,10.9451955 L41.1142361,7.0772818 L38.8495749,7.0772818 L38.8495749,7.0772818 Z M0.53384319,11.912174 L0.53384319,15.7800877 L2.79850443,15.7800877 L2.79850443,11.912174 L0.53384319,11.912174 L0.53384319,11.912174 Z M3.4824905,11.912174 L3.4824905,15.7800877 L5.74715169,15.7800877 L5.74715169,11.912174 L3.4824905,11.912174 L3.4824905,11.912174 Z M6.42696711,11.912174 L6.42696711,15.7800877 L8.69579897,15.7800877 L8.69579897,11.912174 L6.42696711,11.912174 L6.42696711,11.912174 Z M9.3756144,11.912174 L9.3756144,15.7800877 L11.6402756,15.7800877 L11.6402756,11.912174 L9.3756144,11.912174 L9.3756144,11.912174 Z M12.3242617,11.912174 L12.3242617,15.7800877 L14.5889229,15.7800877 L14.5889229,11.912174 L12.3242617,11.912174 L12.3242617,11.912174 Z M15.2687383,11.912174 L15.2687383,15.7800877 L17.5375698,15.7800877 L17.5375698,11.912174 L15.2687383,11.912174 L15.2687383,11.912174 Z M18.2173852,11.912174 L18.2173852,15.7800877 L20.4820464,15.7800877 L20.4820464,11.912174 L18.2173852,11.912174 L18.2173852,11.912174 Z M21.1660325,11.912174 L21.1660325,15.7800877 L23.4306937,15.7800877 L23.4306937,11.912174 L21.1660325,11.912174 L21.1660325,11.912174 Z M24.1105091,11.912174 L24.1105091,15.7800877 L26.379341,15.7800877 L26.379341,11.912174 L24.1105091,11.912174 L24.1105091,11.912174 Z M27.0591564,11.912174 L27.0591564,15.7800877 L29.3238176,15.7800877 L29.3238176,11.912174 L27.0591564,11.912174 L27.0591564,11.912174 Z M30.0078037,11.912174 L30.0078037,15.7800877 L32.2724649,15.7800877 L32.2724649,11.912174 L30.0078037,11.912174 L30.0078037,11.912174 Z M32.9522803,11.912174 L32.9522803,15.7800877 L35.2211122,15.7800877 L35.2211122,11.912174 L32.9522803,11.912174 L32.9522803,11.912174 Z M35.9009276,11.912174 L35.9009276,15.7800877 L38.1655888,15.7800877 L38.1655888,11.912174 L35.9009276,11.912174 L35.9009276,11.912174 Z M38.8495749,11.912174 L38.8495749,15.7800877 L41.1142361,15.7800877 L41.1142361,11.912174 L38.8495749,11.912174 L38.8495749,11.912174 Z M0.53384319,16.7470661 L0.53384319,20.6149799 L2.79850443,20.6149799 L2.79850443,16.7470661 L0.53384319,16.7470661 L0.53384319,16.7470661 Z M3.4824905,16.7470661 L3.4824905,20.6149799 L5.74715169,20.6149799 L5.74715169,16.7470661 L3.4824905,16.7470661 L3.4824905,16.7470661 Z M6.42696711,16.7470661 L6.42696711,20.6149799 L8.69579897,20.6149799 L8.69579897,16.7470661 L6.42696711,16.7470661 L6.42696711,16.7470661 Z M9.3756144,16.7470661 L9.3756144,20.6149799 L11.6402756,20.6149799 L11.6402756,16.7470661 L9.3756144,16.7470661 L9.3756144,16.7470661 Z M12.3242617,16.7470661 L12.3242617,20.6149799 L14.5889229,20.6149799 L14.5889229,16.7470661 L12.3242617,16.7470661 L12.3242617,16.7470661 Z M15.2687383,16.7470661 L15.2687383,20.6149799 L17.5375698,20.6149799 L17.5375698,16.7470661 L15.2687383,16.7470661 L15.2687383,16.7470661 Z M18.2173852,16.7470661 L18.2173852,20.6149799 L20.4820464,20.6149799 L20.4820464,16.7470661 L18.2173852,16.7470661 L18.2173852,16.7470661 Z M21.1660325,16.7470661 L21.1660325,20.6149799 L23.4306937,20.6149799 L23.4306937,16.7470661 L21.1660325,16.7470661 L21.1660325,16.7470661 Z M24.1105091,16.7470661 L24.1105091,20.6149799 L26.379341,20.6149799 L26.379341,16.7470661 L24.1105091,16.7470661 L24.1105091,16.7470661 Z M27.0591564,16.7470661 L27.0591564,20.6149799 L29.3238176,20.6149799 L29.3238176,16.7470661 L27.0591564,16.7470661 L27.0591564,16.7470661 Z M30.0078037,16.7470661 L30.0078037,20.6149799 L32.2724649,20.6149799 L32.2724649,16.7470661 L30.0078037,16.7470661 L30.0078037,16.7470661 Z M32.9522803,16.7470661 L32.9522803,20.6149799 L35.2211122,20.6149799 L35.2211122,16.7470661 L32.9522803,16.7470661 L32.9522803,16.7470661 Z M35.9009276,16.7470661 L35.9009276,20.6149799 L38.1655888,20.6149799 L38.1655888,16.7470661 L35.9009276,16.7470661 L35.9009276,16.7470661 Z M38.8495749,16.7470661 L38.8495749,20.6149799 L41.1142361,20.6149799 L41.1142361,16.7470661 L38.8495749,16.7470661 L38.8495749,16.7470661 Z M0.53384319,21.5819583 L0.53384319,25.449872 L2.79850443,25.449872 L2.79850443,21.5819583 L0.53384319,21.5819583 L0.53384319,21.5819583 Z M3.4824905,21.5819583 L3.4824905,25.449872 L5.74715169,25.449872 L5.74715169,21.5819583 L3.4824905,21.5819583 L3.4824905,21.5819583 Z M6.42696711,21.5819583 L6.42696711,25.449872 L8.69579897,25.449872 L8.69579897,21.5819583 L6.42696711,21.5819583 L6.42696711,21.5819583 Z M9.3756144,21.5819583 L9.3756144,25.449872 L11.6402756,25.449872 L11.6402756,21.5819583 L9.3756144,21.5819583 L9.3756144,21.5819583 Z M12.3242617,21.5819583 L12.3242617,25.449872 L14.5889229,25.449872 L14.5889229,21.5819583 L12.3242617,21.5819583 L12.3242617,21.5819583 Z M15.2687383,21.5819583 L15.2687383,25.449872 L17.5375698,25.449872 L17.5375698,21.5819583 L15.2687383,21.5819583 L15.2687383,21.5819583 Z M18.2173852,21.5819583 L18.2173852,25.449872 L20.4820464,25.449872 L20.4820464,21.5819583 L18.2173852,21.5819583 L18.2173852,21.5819583 Z M21.1660325,21.5819583 L21.1660325,25.449872 L23.4306937,25.449872 L23.4306937,21.5819583 L21.1660325,21.5819583 L21.1660325,21.5819583 Z M24.1105091,21.5819583 L24.1105091,25.449872 L26.379341,25.449872 L26.379341,21.5819583 L24.1105091,21.5819583 L24.1105091,21.5819583 Z M27.0591564,21.5819583 L27.0591564,25.449872 L29.3238176,25.449872 L29.3238176,21.5819583 L27.0591564,21.5819583 L27.0591564,21.5819583 Z M30.0078037,21.5819583 L30.0078037,25.449872 L32.2724649,25.449872 L32.2724649,21.5819583 L30.0078037,21.5819583 L30.0078037,21.5819583 Z M32.9522803,21.5819583 L32.9522803,25.449872 L35.2211122,25.449872 L35.2211122,21.5819583 L32.9522803,21.5819583 L32.9522803,21.5819583 Z M35.9009276,21.5819583 L35.9009276,25.449872 L38.1655888,25.449872 L38.1655888,21.5819583 L35.9009276,21.5819583 L35.9009276,21.5819583 Z M38.8495749,21.5819583 L38.8495749,25.449872 L41.1142361,25.449872 L41.1142361,21.5819583 L38.8495749,21.5819583 L38.8495749,21.5819583 Z M0.53384319,26.4168504 L0.53384319,30.2847642 L2.79850443,30.2847642 L2.79850443,26.4168504 L0.53384319,26.4168504 L0.53384319,26.4168504 Z M3.4824905,26.4168504 L3.4824905,30.2847642 L5.74715169,30.2847642 L5.74715169,26.4168504 L3.4824905,26.4168504 L3.4824905,26.4168504 Z M6.42696711,26.4168504 L6.42696711,30.2847642 L8.69579897,30.2847642 L8.69579897,26.4168504 L6.42696711,26.4168504 L6.42696711,26.4168504 Z M9.3756144,26.4168504 L9.3756144,30.2847642 L11.6402756,30.2847642 L11.6402756,26.4168504 L9.3756144,26.4168504 L9.3756144,26.4168504 Z M12.3242617,26.4168504 L12.3242617,30.2847642 L14.5889229,30.2847642 L14.5889229,26.4168504 L12.3242617,26.4168504 L12.3242617,26.4168504 Z M15.2687383,26.4168504 L15.2687383,30.2847642 L17.5375698,30.2847642 L17.5375698,26.4168504 L15.2687383,26.4168504 L15.2687383,26.4168504 Z M18.2173852,26.4168504 L18.2173852,30.2847642 L20.4820464,30.2847642 L20.4820464,26.4168504 L18.2173852,26.4168504 L18.2173852,26.4168504 Z M21.1660325,26.4168504 L21.1660325,30.2847642 L23.4306937,30.2847642 L23.4306937,26.4168504 L21.1660325,26.4168504 L21.1660325,26.4168504 Z M24.1105091,26.4168504 L24.1105091,30.2847642 L26.379341,30.2847642 L26.379341,26.4168504 L24.1105091,26.4168504 L24.1105091,26.4168504 Z M27.0591564,26.4168504 L27.0591564,30.2847642 L29.3238176,30.2847642 L29.3238176,26.4168504 L27.0591564,26.4168504 L27.0591564,26.4168504 Z M30.0078037,26.4168504 L30.0078037,30.2847642 L32.2724649,30.2847642 L32.2724649,26.4168504 L30.0078037,26.4168504 L30.0078037,26.4168504 Z M32.9522803,26.4168504 L32.9522803,30.2847642 L35.2211122,30.2847642 L35.2211122,26.4168504 L32.9522803,26.4168504 L32.9522803,26.4168504 Z M35.9009276,26.4168504 L35.9009276,30.2847642 L38.1655888,30.2847642 L38.1655888,26.4168504 L35.9009276,26.4168504 L35.9009276,26.4168504 Z M38.8495749,26.4168504 L38.8495749,30.2847642 L41.1142361,30.2847642 L41.1142361,26.4168504 L38.8495749,26.4168504 L38.8495749,26.4168504 Z M0.53384319,31.2517426 L0.53384319,35.1196563 L2.79850443,35.1196563 L2.79850443,31.2517426 L0.53384319,31.2517426 L0.53384319,31.2517426 Z M3.4824905,31.2517426 L3.4824905,35.1196563 L5.74715169,35.1196563 L5.74715169,31.2517426 L3.4824905,31.2517426 L3.4824905,31.2517426 Z M6.42696711,31.2517426 L6.42696711,35.1196563 L8.69579897,35.1196563 L8.69579897,31.2517426 L6.42696711,31.2517426 L6.42696711,31.2517426 Z M9.3756144,31.2517426 L9.3756144,35.1196563 L11.6402756,35.1196563 L11.6402756,31.2517426 L9.3756144,31.2517426 L9.3756144,31.2517426 Z M12.3242617,31.2517426 L12.3242617,35.1196563 L14.5889229,35.1196563 L14.5889229,31.2517426 L12.3242617,31.2517426 L12.3242617,31.2517426 Z M15.2687383,31.2517426 L15.2687383,35.1196563 L17.5375698,35.1196563 L17.5375698,31.2517426 L15.2687383,31.2517426 L15.2687383,31.2517426 Z M18.2173852,31.2517426 L18.2173852,35.1196563 L20.4820464,35.1196563 L20.4820464,31.2517426 L18.2173852,31.2517426 L18.2173852,31.2517426 Z M21.1660325,31.2517426 L21.1660325,35.1196563 L23.4306937,35.1196563 L23.4306937,31.2517426 L21.1660325,31.2517426 L21.1660325,31.2517426 Z M24.1105091,31.2517426 L24.1105091,35.1196563 L26.379341,35.1196563 L26.379341,31.2517426 L24.1105091,31.2517426 L24.1105091,31.2517426 Z M27.0591564,31.2517426 L27.0591564,35.1196563 L29.3238176,35.1196563 L29.3238176,31.2517426 L27.0591564,31.2517426 L27.0591564,31.2517426 Z M30.0078037,31.2517426 L30.0078037,35.1196563 L32.2724649,35.1196563 L32.2724649,31.2517426 L30.0078037,31.2517426 L30.0078037,31.2517426 Z M32.9522803,31.2517426 L32.9522803,35.1196563 L35.2211122,35.1196563 L35.2211122,31.2517426 L32.9522803,31.2517426 L32.9522803,31.2517426 Z M35.9009276,31.2517426 L35.9009276,35.1196563 L38.1655888,35.1196563 L38.1655888,31.2517426 L35.9009276,31.2517426 L35.9009276,31.2517426 Z M38.8495749,31.2517426 L38.8495749,35.1196563 L41.1142361,35.1196563 L41.1142361,31.2517426 L38.8495749,31.2517426 L38.8495749,31.2517426 Z M0.53384319,36.0866348 L0.53384319,39.9545485 L2.79850443,39.9545485 L2.79850443,36.0866348 L0.53384319,36.0866348 L0.53384319,36.0866348 Z M3.4824905,36.0866348 L3.4824905,39.9545485 L5.74715169,39.9545485 L5.74715169,36.0866348 L3.4824905,36.0866348 L3.4824905,36.0866348 Z M6.42696711,36.0866348 L6.42696711,39.9545485 L8.69579897,39.9545485 L8.69579897,36.0866348 L6.42696711,36.0866348 L6.42696711,36.0866348 Z M9.3756144,36.0866348 L9.3756144,39.9545485 L11.6402756,39.9545485 L11.6402756,36.0866348 L9.3756144,36.0866348 L9.3756144,36.0866348 Z M12.3242617,36.0866348 L12.3242617,39.9545485 L14.5889229,39.9545485 L14.5889229,36.0866348 L12.3242617,36.0866348 L12.3242617,36.0866348 Z M15.2687383,36.0866348 L15.2687383,39.9545485 L17.5375698,39.9545485 L17.5375698,36.0866348 L15.2687383,36.0866348 L15.2687383,36.0866348 Z M18.2173852,36.0866348 L18.2173852,39.9545485 L20.4820464,39.9545485 L20.4820464,36.0866348 L18.2173852,36.0866348 L18.2173852,36.0866348 Z M21.1660325,36.0866348 L21.1660325,39.9545485 L23.4306937,39.9545485 L23.4306937,36.0866348 L21.1660325,36.0866348 L21.1660325,36.0866348 Z M24.1105091,36.0866348 L24.1105091,39.9545485 L26.379341,39.9545485 L26.379341,36.0866348 L24.1105091,36.0866348 L24.1105091,36.0866348 Z M27.0591564,36.0866348 L27.0591564,39.9545485 L29.3238176,39.9545485 L29.3238176,36.0866348 L27.0591564,36.0866348 L27.0591564,36.0866348 Z M30.0078037,36.0866348 L30.0078037,39.9545485 L32.2724649,39.9545485 L32.2724649,36.0866348 L30.0078037,36.0866348 L30.0078037,36.0866348 Z M32.9522803,36.0866348 L32.9522803,39.9545485 L35.2211122,39.9545485 L35.2211122,36.0866348 L32.9522803,36.0866348 L32.9522803,36.0866348 Z M35.9009276,36.0866348 L35.9009276,39.9545485 L38.1655888,39.9545485 L38.1655888,36.0866348 L35.9009276,36.0866348 L35.9009276,36.0866348 Z M38.8495749,36.0866348 L38.8495749,39.9545485 L41.1142361,39.9545485 L41.1142361,36.0866348 L38.8495749,36.0866348 L38.8495749,36.0866348 Z M0.53384319,40.9215269 L0.53384319,44.7894407 L2.79850443,44.7894407 L2.79850443,40.9215269 L0.53384319,40.9215269 L0.53384319,40.9215269 Z M3.4824905,40.9215269 L3.4824905,44.7894407 L5.74715169,44.7894407 L5.74715169,40.9215269 L3.4824905,40.9215269 L3.4824905,40.9215269 Z M6.42696711,40.9215269 L6.42696711,44.7894407 L8.69579897,44.7894407 L8.69579897,40.9215269 L6.42696711,40.9215269 L6.42696711,40.9215269 Z M9.3756144,40.9215269 L9.3756144,44.7894407 L11.6402756,44.7894407 L11.6402756,40.9215269 L9.3756144,40.9215269 L9.3756144,40.9215269 Z M12.3242617,40.9215269 L12.3242617,44.7894407 L14.5889229,44.7894407 L14.5889229,40.9215269 L12.3242617,40.9215269 L12.3242617,40.9215269 Z M15.2687383,40.9215269 L15.2687383,44.7894407 L17.5375698,44.7894407 L17.5375698,40.9215269 L15.2687383,40.9215269 L15.2687383,40.9215269 Z M18.2173852,40.9215269 L18.2173852,44.7894407 L20.4820464,44.7894407 L20.4820464,40.9215269 L18.2173852,40.9215269 L18.2173852,40.9215269 Z M21.1660325,40.9215269 L21.1660325,44.7894407 L23.4306937,44.7894407 L23.4306937,40.9215269 L21.1660325,40.9215269 L21.1660325,40.9215269 Z M24.1105091,40.9215269 L24.1105091,44.7894407 L26.379341,44.7894407 L26.379341,40.9215269 L24.1105091,40.9215269 L24.1105091,40.9215269 Z M27.0591564,40.9215269 L27.0591564,44.7894407 L29.3238176,44.7894407 L29.3238176,40.9215269 L27.0591564,40.9215269 L27.0591564,40.9215269 Z M30.0078037,40.9215269 L30.0078037,44.7894407 L32.2724649,44.7894407 L32.2724649,40.9215269 L30.0078037,40.9215269 L30.0078037,40.9215269 Z M32.9522803,40.9215269 L32.9522803,44.7894407 L35.2211122,44.7894407 L35.2211122,40.9215269 L32.9522803,40.9215269 L32.9522803,40.9215269 Z M35.9009276,40.9215269 L35.9009276,44.7894407 L38.1655888,44.7894407 L38.1655888,40.9215269 L35.9009276,40.9215269 L35.9009276,40.9215269 Z M38.8495749,40.9215269 L38.8495749,44.7894407 L41.1142361,44.7894407 L41.1142361,40.9215269 L38.8495749,40.9215269 L38.8495749,40.9215269 Z M0.53384319,45.7564191 L0.53384319,55.2844911 L2.79850443,55.2844911 L2.79850443,45.7564191 L0.53384319,45.7564191 L0.53384319,45.7564191 Z M3.4824905,45.7564191 L3.4824905,55.2844911 L5.74715169,55.2844911 L5.74715169,45.7564191 L3.4824905,45.7564191 L3.4824905,45.7564191 Z M6.42696711,45.7564191 L6.42696711,55.2844911 L8.69579897,55.2844911 L8.69579897,45.7564191 L6.42696711,45.7564191 L6.42696711,45.7564191 Z M9.3756144,45.7564191 L9.3756144,55.2844911 L11.6402756,55.2844911 L11.6402756,45.7564191 L9.3756144,45.7564191 L9.3756144,45.7564191 Z M12.3242617,45.7564191 L12.3242617,55.2844911 L14.5889229,55.2844911 L14.5889229,45.7564191 L12.3242617,45.7564191 L12.3242617,45.7564191 Z M15.2687383,45.7564191 L15.2687383,55.2844911 L17.5375698,55.2844911 L17.5375698,45.7564191 L15.2687383,45.7564191 L15.2687383,45.7564191 Z M18.2173852,45.7564191 L18.2173852,55.2844911 L20.4820464,55.2844911 L20.4820464,45.7564191 L18.2173852,45.7564191 L18.2173852,45.7564191 Z M21.1660325,45.7564191 L21.1660325,55.2844911 L23.4306937,55.2844911 L23.4306937,45.7564191 L21.1660325,45.7564191 L21.1660325,45.7564191 Z M24.1105091,45.7564191 L24.1105091,55.2844911 L26.379341,55.2844911 L26.379341,45.7564191 L24.1105091,45.7564191 L24.1105091,45.7564191 Z M27.0591564,45.7564191 L27.0591564,55.2844911 L29.3238176,55.2844911 L29.3238176,45.7564191 L27.0591564,45.7564191 L27.0591564,45.7564191 Z M30.0078037,45.7564191 L30.0078037,55.2844911 L32.2724649,55.2844911 L32.2724649,45.7564191 L30.0078037,45.7564191 L30.0078037,45.7564191 Z M32.9522803,45.7564191 L32.9522803,55.2844911 L35.2211122,55.2844911 L35.2211122,45.7564191 L32.9522803,45.7564191 L32.9522803,45.7564191 Z M35.9009276,45.7564191 L35.9009276,55.2844911 L38.1655888,55.2844911 L38.1655888,45.7564191 L35.9009276,45.7564191 L35.9009276,45.7564191 Z M38.8495749,45.7564191 L38.8495749,55.2844911 L41.1142361,55.2844911 L41.1142361,45.7564191 L38.8495749,45.7564191 L38.8495749,45.7564191 Z" id="path4274" fill="url(#linearGradient-5)"></path>
                </g>
                <rect id="rect8237" fill="url(#linearGradient-6)" sketch:type="MSShapeGroup" x="0.187035317" y="80.6706119" width="33.9112012" height="41.6672801"></rect>
                <g id="g8239" transform="translate(2.526305, 82.219846)" fill="#555753" sketch:type="MSShapeGroup">
                    <rect id="rect8241" x="0.181399446" y="0.0276138206" width="28.8698566" height="1.00204077"></rect>
                    <rect id="rect8243" x="0.181399446" y="2.32973571" width="28.8698566" height="1.00204077"></rect>
                    <rect id="rect8245" x="0.181399446" y="16.1424812" width="28.8698566" height="1.00204077"></rect>
                    <rect id="rect8247" x="0.181399446" y="18.4446031" width="28.8698566" height="1.00204077"></rect>
                    <rect id="rect8249" x="0.181399446" y="20.7467315" width="28.8698566" height="1.00204077"></rect>
                    <rect id="rect8251" x="0.181399446" y="23.0488567" width="28.8698566" height="1.00204077"></rect>
                    <rect id="rect8253" x="0.181399446" y="25.3509775" width="28.8698566" height="1.00204077"></rect>
                    <rect id="rect8255" x="0.181399446" y="27.6531059" width="28.8698566" height="1.00204077"></rect>
                    <rect id="rect8257" x="0.181399446" y="29.9552311" width="28.8698566" height="1.00204077"></rect>
                    <rect id="rect8259" x="0.181399446" y="32.2573519" width="28.8698566" height="1.00204077"></rect>
                    <rect id="rect8261" x="0.181399446" y="34.559477" width="28.8698566" height="1.00204077"></rect>
                    <rect id="rect8263" x="0.181399446" y="4.63186087" width="28.8698566" height="1.00204077"></rect>
                    <rect id="rect8265" x="0.181399446" y="6.93398603" width="28.8698566" height="1.00204077"></rect>
                    <rect id="rect8267" x="0.181399446" y="9.23610901" width="28.8698566" height="1.00204077"></rect>
                    <rect id="rect8269" x="0.181399446" y="11.5382342" width="28.8698566" height="1.00204077"></rect>
                    <rect id="rect8271" x="0.181399446" y="13.8403582" width="28.8698566" height="1.00204077"></rect>
                </g>
                <g id="g8273" transform="translate(6.640226, 80.693739)" fill="#8A9DA5" sketch:type="MSShapeGroup">
                    <rect id="rect8275" x="0.246548406" y="0.0394807216" width="0.612489535" height="37.7166507"></rect>
                    <rect id="rect8277" x="20.1457829" y="0.539366418" width="0.612489535" height="37.7166507"></rect>
                    <rect id="rect8279" x="6.87962656" y="0.270721071" width="0.612489535" height="37.7166507"></rect>
                    <rect id="rect8281" x="13.5127047" y="0.116560802" width="0.612489535" height="37.7166507"></rect>
                </g>
                <g id="g8283" transform="translate(0.389388, 118.955428)" fill="#555753" sketch:type="MSShapeGroup">
                    <rect id="rect8285" x="29.2481217" y="0.10102721" width="1.85109132" height="3.16028241"></rect>
                    <rect id="rect8287" x="15.8276962" y="0.10102721" width="1.85109132" height="3.16028241"></rect>
                    <rect id="rect8289" x="13.5909672" y="0.10102721" width="1.85109132" height="3.16028241"></rect>
                    <rect id="rect8291" x="11.3542381" y="0.10102721" width="1.85109132" height="3.16028241"></rect>
                    <rect id="rect8293" x="9.11749117" y="0.10102721" width="1.85109132" height="3.16028241"></rect>
                    <rect id="rect8295" x="6.8807621" y="0.10102721" width="1.85109132" height="3.16028241"></rect>
                    <rect id="rect8297" x="4.64403303" y="0.10102721" width="1.85109132" height="3.16028241"></rect>
                    <rect id="rect8299" x="2.40728864" y="0.10102721" width="1.85109132" height="3.16028241"></rect>
                    <rect id="rect8301" x="0.170559574" y="0.10102721" width="1.85109132" height="3.16028241"></rect>
                    <rect id="rect8303" x="31.4848508" y="0.10102721" width="1.85109132" height="3.16028241"></rect>
                    <rect id="rect8305" x="27.0113748" y="0.10102721" width="1.85109132" height="3.16028241"></rect>
                    <rect id="rect8307" x="24.7746457" y="0.10102721" width="1.85109132" height="3.16028241"></rect>
                    <rect id="rect8309" x="22.5379166" y="0.10102721" width="1.85109132" height="3.16028241"></rect>
                    <rect id="rect8311" x="20.3011722" y="0.10102721" width="1.85109132" height="3.16028241"></rect>
                    <rect id="rect8313" x="18.0644406" y="0.10102721" width="1.85109132" height="3.16028241"></rect>
                </g>
            </g>
        </g>
    </g>
</svg>