<?xml version="1.0" encoding="UTF-8" standalone="no"?>
<svg width="512px" height="100px" viewBox="0 0 512 100" version="1.1" xmlns="http://www.w3.org/2000/svg" xmlns:xlink="http://www.w3.org/1999/xlink" xmlns:sketch="http://www.bohemiancoding.com/sketch/ns">
    <!-- Generator: Sketch 3.3.3 (12072) - http://www.bohemiancoding.com/sketch -->
    <title>logo</title>
    <desc>Created with Sketch.</desc>
    <defs></defs>
    <g id="Page-1" stroke="none" stroke-width="1" fill="none" fill-rule="evenodd" sketch:type="MSPage">
        <g id="logo" sketch:type="MSArtboardGroup">
            <path d="M127.882944,34.5950272 C131.261449,34.5950272 134,32.7659574 134,30.0904473 L134,30.0904473 C134,27.4148064 131.261449,25.2458522 127.882944,25.2458522 L127.882944,25.2458522 C126.731226,25.2458522 125.65467,25.4983452 124.734386,25.9366103 L124.734386,25.9366103 C124.860427,25.5041016 124.929312,25.0544547 124.929312,24.5915944 L124.929312,24.5915944 C124.929312,21.2955795 121.555102,18.6237325 117.393257,18.6237325 L117.393257,18.6237325 C115.77735,18.6237325 114.281372,19.0277213 113.053996,19.7139005 L113.053996,19.7139005 C113.734917,18.6955557 114.122127,17.5351344 114.122127,16.3023668 L114.122127,16.3023668 C114.122127,12.2698049 109.994312,9.00060914 104.902271,9.00060914 L104.902271,9.00060914 C99.8103956,9.00060914 95.6824149,12.269674 95.6824149,16.3023668 L95.6824149,16.3023668 C95.6824149,16.3311483 95.6845624,16.3596683 95.6848928,16.388319 L95.6848928,16.388319 C95.6113824,16.3862258 95.5368808,16.3840018 95.4623793,16.3840018 L95.4623793,16.3840018 C92.1819983,16.3840018 89.5225738,18.4898981 89.5225738,21.0879596 L89.5225738,21.0879596 C89.5225738,22.1972281 90.0085684,23.2163579 90.819991,24.0206724 L90.819991,24.0206724 C90.3579493,23.9424388 89.8792231,23.9005747 89.3879424,23.9005747 L89.3879424,23.9005747 C85.6179326,23.9005747 82.5617171,26.3208445 82.5617171,29.3068032 L82.5617171,29.3068032 C82.5617171,32.2926312 85.6179326,34.7129009 89.3879424,34.7129009 L89.3879424,34.7129009 L127.882944,34.5950272" id="cloud-3" fill="#FFFFFF" sketch:type="MSShapeGroup"></path>
            <path d="M75.4766,62.9996311 C78.45,62.9996311 80.8602,60.9456104 80.8602,58.106004 L80.8602,58.106004 C80.8602,55.2663977 78.4498,52.9642672 75.4766,52.9642672 L75.4766,52.9642672 C75.2948,52.9642672 75.1154,52.9734352 74.9384,52.9906253 L74.9384,52.9906253 C74.9752,52.6246681 74.9954,52.2545088 74.9954,51.8797656 L74.9954,51.8797656 C74.9954,45.5473308 69.6202,40.413616 62.989,40.413616 L62.989,40.413616 C60.4378,40.413616 58.074,41.1757085 56.129,42.4718387 L56.129,42.4718387 C53.969,36.4392749 47.986,32.1001227 40.9374,32.1001227 L40.9374,32.1001227 C32.3928,32.1001227 25.4102,38.4747686 24.9124,46.515322 L24.9124,46.515322 C23.978,46.197879 22.9726,46.0233044 21.924,46.0233044 L21.924,46.0233044 C17.0032,46.0233044 13.0144,49.8328119 13.0144,54.5320003 L13.0144,54.5320003 C13.0144,59.2311887 17.0032,63.0401232 21.924,63.0401232 L21.924,63.0401232 L75.4766,62.9996311" id="cloud-2" fill="#FFFFFF" sketch:type="MSShapeGroup"></path>
            <path d="M249.09575,53.8634172 C252.8125,53.8634172 255.82525,51.1584233 255.82525,47.4188712 L255.82525,47.4188712 C255.82525,43.679319 252.81225,40.6475828 249.09575,40.6475828 L249.09575,40.6475828 C248.8685,40.6475828 248.64425,40.6596564 248.423,40.6822945 L248.423,40.6822945 C248.469,40.2003558 248.49425,39.7128834 248.49425,39.2193742 L248.49425,39.2193742 C248.49425,30.8800245 241.77525,24.1193006 233.48625,24.1193006 L233.48625,24.1193006 C230.29725,24.1193006 227.3425,25.1229202 224.91125,26.8298282 L224.91125,26.8298282 C222.21125,18.8853865 214.7325,13.1710429 205.92175,13.1710429 L205.92175,13.1710429 C195.241,13.1710429 186.51275,21.5659816 185.8905,32.1547975 L185.8905,32.1547975 C184.7225,31.7367485 183.46575,31.5068466 182.155,31.5068466 L182.155,31.5068466 C176.004,31.5068466 171.018,36.5236871 171.018,42.7121718 L171.018,42.7121718 C171.018,48.9006564 176.004,53.9167423 182.155,53.9167423 L182.155,53.9167423 L249.09575,53.8634172" id="cloud-1" fill="#FFFFFF" sketch:type="MSShapeGroup"></path>
            <path d="M338.547252,69.4439755 L313.596821,107.703897 C313.512529,107.831416 313.605466,108 313.756759,108 L343.663128,108 L360.435074,75.977686 L354.305533,68.5578289 C350.097417,63.4635663 342.156679,63.9109623 338.547252,69.4439755" id="Fill-2146" fill="#749E4B" sketch:type="MSShapeGroup"></path>
            <path d="M288.553245,100 C288.457175,100.145336 351.151783,100 351.151783,100 L328.655677,64.9856147 C323.859595,59.1795716 315.50975,58.679518 311.396007,64.9856149 L288.553245,100 Z" id="Fill-2146-Copy" fill="#76A944" sketch:type="MSShapeGroup"></path>
            <g id="Mountainside-Copy" sketch:type="MSLayerGroup" transform="translate(404.000000, 40.000000)">
                <path d="M30.0959091,22.4761905 L33.4140909,19.6666667 L36.7322727,22.4761905 L40.0504545,19.6666667 L43.3686364,22.4761905 L48.1385227,18.4375 L36.7322727,0 L25.3260227,18.4375 L30.0959091,22.4761905" id="Fill-2122" fill="#ECF0F1" sketch:type="MSShapeGroup"></path>
                <path d="M72.9585227,58.5589048 L48.1385227,18.4375 L43.3686364,22.4761905 L40.0504545,19.6666667 L36.7322727,22.4761905 L33.4140909,19.6666667 L30.0959091,22.4761905 L25.3260227,18.4375 L0.232272727,59 L72.6432955,59 C72.9104091,59 73.0829545,58.7597857 72.9585227,58.5589048" id="Fill-2123" fill="#776758" sketch:type="MSShapeGroup"></path>
            </g>
            <g id="Mountainside-Copy-2" sketch:type="MSLayerGroup" transform="translate(437.203967, 26.000000)">
                <path d="M40.4027273,28.5714286 L44.8572727,25 L49.3118182,28.5714286 L53.7663636,25 L58.2209091,28.5714286 L64.6243182,23.4375 L49.3118182,0 L33.9993182,23.4375 L40.4027273,28.5714286" id="Fill-2122" fill="#ECF0F1" sketch:type="MSShapeGroup"></path>
                <path d="M97.9443182,74.4392857 L64.6243182,23.4375 L58.2209091,28.5714286 L53.7663636,25 L49.3118182,28.5714286 L44.8572727,25 L40.4027273,28.5714286 L33.9993182,23.4375 L0.311818182,75 L97.5211364,75 C97.8797273,75 98.1113636,74.6946429 97.9443182,74.4392857" id="Fill-2123" fill="#7F6E5D" sketch:type="MSShapeGroup"></path>
            </g>
            <g id="Mountainside" sketch:type="MSLayerGroup" transform="translate(336.000000, 13.000000)">
                <path d="M43.7009091,35.047619 L48.5190909,30.6666667 L53.3372727,35.047619 L58.1554545,30.6666667 L62.9736364,35.047619 L69.8997727,28.75 L53.3372727,0 L36.7747727,28.75 L43.7009091,35.047619" id="Fill-2122" fill="#ECF0F1" sketch:type="MSShapeGroup"></path>
                <path d="M105.939773,91.3121905 L69.8997727,28.75 L62.9736364,35.047619 L58.1554545,30.6666667 L53.3372727,35.047619 L48.5190909,30.6666667 L43.7009091,35.047619 L36.7747727,28.75 L0.337272727,92 L105.482045,92 C105.869909,92 106.120455,91.6254286 105.939773,91.3121905" id="Fill-2123" fill="#7F6E5D" sketch:type="MSShapeGroup"></path>
            </g>
        </g>
    </g>
</svg>